<?xml version="1.0" encoding="utf-8" ?><svg xmlns="http://www.w3.org/2000/svg" xmlns:xlink="http://www.w3.org/1999/xlink" width="1344" height="768" viewBox="0 0 1344 768"><path fill="#0A0A0A" d="M0 0L193.762 0L203.17 0L829.763 0L831.124 0L1140.37 0L1150.16 0L1344 0L1344 347.361L1344 348.718L1344 356.31L1344 357.592L1344 378.046L1344 390.142L1344 407.964L1344 408.842L1344 419.621L1344 420.206L1344 420.755L1344 768L1151.3 768L1141.23 768L832.613 768L831.043 768L203.027 768L192.892 768L0 768L0 420.809L0 420.01L0 419.413L0 408.988L0 407.663L0 390.174L0 377.823L0 357.749L0 356.332L0 348.781L0 347.197L0 0Z"/><path fill="#0A0A0A" d="M831.124 0L1140.37 0L1150.16 0L1344 0L1344 347.361L1344 348.718L1344 356.31C1318.75 356.048 1293.38 356.462 1268.1 356.331C1256.33 356.269 1243.36 356.858 1231.66 355.662C1228.22 355.31 1226.26 353.907 1223.45 351.936L1221.88 352.534C1221.35 352.043 1220.74 351.446 1220.17 351.013C1219.71 350.256 1219.33 349.372 1218.94 348.563C1218.11 347.091 1216.87 346.13 1215.61 345.005L1214.18 345.247C1212.05 342.909 1210.02 341.457 1207.95 339.307C1206.73 337.84 1206.1 336.99 1205.06 335.428C1204.41 333.909 1189.92 321.027 1187.43 318.799L1186.41 319.472C1184.3 317.383 1177.21 310.477 1174.84 309.561C1174.75 309.226 1174.6 308.765 1174.6 308.418C1169.51 308.738 1160.99 306.798 1156.01 305.452C1126.52 297.48 1103.24 281.591 1080.74 261.564C1067.21 247.936 1053.83 233.193 1040.51 219.224L945.557 119.463C921.62 94.7381 897.813 69.8876 874.136 44.913C861.53 31.8182 847.552 17.912 835.396 4.56152C834.146 3.03288 832.515 1.43936 831.124 0Z"/><path fill="#0A0A0A" d="M1178.64 310.612C1189.76 311.29 1200.63 312.294 1211.78 312.395C1225.24 312.476 1238.7 312.483 1252.15 312.419C1257.38 312.392 1265.34 312.188 1270.53 312.566C1272.09 312.679 1278.95 319.687 1281.09 321.377C1282.41 322.161 1282.67 322.465 1283.78 323.545L1285.01 323.264C1287.09 325.033 1289.21 326.89 1291.28 328.626L1292.3 329.659C1293.79 330.954 1295.18 332.161 1296.61 333.533L1296.83 333.834L1296.79 335.136C1297.45 335.66 1298.04 336.17 1298.67 336.72L1300.45 336.519C1316.85 349.693 1323.35 347.377 1344 347.361L1344 348.718L1344 356.31C1318.75 356.048 1293.38 356.462 1268.1 356.331C1256.33 356.269 1243.36 356.858 1231.66 355.662C1228.22 355.31 1226.26 353.907 1223.45 351.936L1221.88 352.534C1221.35 352.043 1220.74 351.446 1220.17 351.013C1219.71 350.256 1219.33 349.372 1218.94 348.563C1218.11 347.091 1216.87 346.13 1215.61 345.005L1214.18 345.247C1212.05 342.909 1210.02 341.457 1207.95 339.307C1206.73 337.84 1206.1 336.99 1205.06 335.428C1204.41 333.909 1189.92 321.027 1187.43 318.799C1184.58 315.986 1181.65 313.256 1178.64 310.612Z"/><path fill="#4F4F51" d="M1300.45 336.519C1316.85 349.693 1323.35 347.377 1344 347.361L1344 348.718C1326.57 348.887 1312.1 350.553 1298.67 336.72L1300.45 336.519Z"/><path fill="#898888" d="M1205.06 335.428C1208.9 338.123 1212.13 341.833 1215.61 345.005L1214.18 345.247C1212.05 342.909 1210.02 341.457 1207.95 339.307C1206.73 337.84 1206.1 336.99 1205.06 335.428Z"/><path fill="#4F4F51" d="M1285.01 323.264C1287.09 325.033 1289.21 326.89 1291.28 328.626L1290 329.168C1287.27 326.58 1286.11 326.422 1283.78 323.545L1285.01 323.264Z"/><path fill="#6E6E70" d="M1292.3 329.659C1293.79 330.954 1295.18 332.161 1296.61 333.533L1294.79 333.441C1293.83 332.478 1293.31 331.998 1292.23 331.155L1292.3 329.659Z"/><path fill="#898888" d="M1218.94 348.563C1220.47 349.692 1221.88 350.968 1223.45 351.936L1221.88 352.534C1221.35 352.043 1220.74 351.446 1220.17 351.013C1219.71 350.256 1219.33 349.372 1218.94 348.563Z"/><path fill="#1A1A1A" d="M1291.28 328.626L1292.3 329.659L1292.23 331.155C1290.99 330.473 1290.87 330.268 1290 329.168L1291.28 328.626Z"/><path fill="#1A1A1A" d="M1296.61 333.533L1296.83 333.834L1296.79 335.136C1295.76 334.447 1295.65 334.337 1294.79 333.441L1296.61 333.533Z"/><path fill="#FBBF24" d="M1140.37 0L1150.16 0C1154.38 4.89288 1158.88 9.7907 1163.39 14.4103C1194.18 45.9124 1224.09 80.1663 1255.63 110.775L1255.01 112.221C1237.2 94.2678 1218.78 76.5759 1200.7 58.8293C1180.87 39.3689 1160.65 18.8681 1140.37 0Z"/><path fill="#4F4F51" d="M1177.26 308.952C1206.47 311.703 1241.21 311.162 1270.67 310.605C1274.36 313.62 1277.18 315.993 1280.61 319.305L1281.09 321.377C1278.95 319.687 1272.09 312.679 1270.53 312.566C1265.34 312.188 1257.38 312.392 1252.15 312.419C1238.7 312.483 1225.24 312.476 1211.78 312.395C1200.63 312.294 1189.76 311.29 1178.64 310.612C1178.09 309.995 1177.77 309.611 1177.26 308.952Z"/><path fill="#6E4A15" d="M1255.63 110.775C1263.18 118.18 1275 129.456 1281.56 137.3C1281.62 151.672 1281.57 166.043 1281.41 180.414C1281.37 184.35 1281.5 196.495 1281 199.919C1279.96 182.561 1280.1 155.463 1280.26 137.686C1275.77 133.054 1257.49 115.548 1255.01 112.221L1255.63 110.775Z"/><path fill="#CFD0D0" d="M1127.99 264.438C1128.48 263.51 1128.86 262.849 1129.43 261.961C1131.65 264.883 1137.09 269.669 1139.79 272.559C1147.64 280.975 1157.39 289.597 1165.09 297.979L1163.96 298.281C1159.94 294.135 1153.39 288.169 1149.09 284.227C1144.44 279.955 1132.41 267.34 1127.99 264.438Z"/><path fill="#898888" d="M1165.09 297.979C1168.47 300.401 1175.15 307.765 1177.26 308.952C1177.77 309.611 1178.09 309.995 1178.64 310.612C1181.65 313.256 1184.58 315.986 1187.43 318.799L1186.41 319.472C1184.3 317.383 1177.21 310.477 1174.84 309.561C1174.75 309.226 1174.6 308.765 1174.6 308.418C1170.84 304.872 1167.38 302.201 1163.96 298.281L1165.09 297.979Z"/><path fill="#FCFAFC" d="M1119.62 255.84C1121.23 256.6 1131.05 260.235 1130.79 261.536C1130.51 261.826 1129.89 261.866 1129.43 261.961C1128.86 262.849 1128.48 263.51 1127.99 264.438C1127.69 264.806 1127.42 265.187 1127.06 265.49C1126.31 265.257 1120.56 257.1 1119.62 255.84Z"/><path fill="#6E6E70" d="M1280.61 319.305C1282.09 320.605 1283.6 321.889 1285.01 323.264L1283.78 323.545C1282.67 322.465 1282.41 322.161 1281.09 321.377L1280.61 319.305Z"/><path fill="#6E6E70" d="M1296.83 333.834C1298.11 334.716 1299.23 335.571 1300.45 336.519L1298.67 336.72C1298.04 336.17 1297.45 335.66 1296.79 335.136L1296.83 333.834Z"/><path fill="#0BFACF" d="M1211.86 92.857C1219.4 100.692 1243.59 126.206 1251.37 132.233C1251.45 149.761 1252.79 168.447 1253.52 186.082C1271.59 204.476 1293.53 225.411 1310.66 244.154C1310.94 257.51 1311.08 270.868 1311.09 284.227C1308.8 281.728 1304.73 277.509 1302.79 274.992L1302.47 248.915C1284.45 229.313 1262.71 210.366 1245.51 191.236L1245.67 132.346C1236.69 121.455 1226.48 111.658 1217.55 101.178C1216.93 100.81 1217.04 100.866 1216.64 100.2L1211.36 94.809L1211.86 92.857Z"/><path fill="#1FA27A" d="M1216.64 100.2C1217.36 100.401 1217.37 100.481 1217.55 101.178C1216.93 100.81 1217.04 100.866 1216.64 100.2Z"/><path fill="#1C5744" d="M1186.93 69.7043C1183.94 66.9568 1157.89 40.1988 1158.02 39.2947C1158.09 39.2629 1158.17 39.2312 1158.25 39.1994C1162.31 42.6793 1185.74 65.6931 1187.53 68.2751L1186.93 69.7043Z"/><path fill="#1FA27A" d="M1187.53 68.2751C1193.38 74.1085 1207.18 87.2505 1211.86 92.857L1211.36 94.809C1203.34 87.0369 1195.03 77.234 1186.93 69.7043L1187.53 68.2751Z"/><path fill="#0A0A0A" d="M1320.9 419.961C1328.61 420.268 1336.29 419.795 1344 420.206L1344 420.755L1344 768L1151.3 768L1141.23 768L832.613 768L1016.49 578.09C1032.05 562.233 1047.52 546.282 1062.88 530.24C1072.22 520.494 1083.57 507.85 1093.44 499.017C1105.29 488.683 1114.13 482.267 1127.95 474.857C1128.4 474.503 1128.32 474.505 1128.84 474.379C1139.14 468.83 1160.62 460.805 1172.09 460.252C1162.51 469.064 1153.05 478.004 1143.7 487.069C1141.41 489.284 1129.61 500.95 1127.72 502.047C1128.74 502.756 1128.81 502.865 1129.95 503.273C1140.88 494.184 1152.84 479.635 1163.74 469.921C1167.4 466.666 1170.86 462.562 1174.91 459.725L1176.63 457.961C1210.74 455.147 1237.21 455.514 1271.2 455.515C1284.23 444.885 1304.94 420.959 1320.9 419.961Z"/><path fill="#FBBF24" d="M1247.83 663.793L1248.23 665.776C1216.26 697.515 1180.67 733.988 1151.3 768L1141.23 768C1163.81 747.504 1186.88 723.092 1209.08 701.856C1221.93 689.565 1235.69 676.633 1247.83 663.793Z"/><path fill="#4F4F51" d="M1320.9 419.961C1328.61 420.268 1336.29 419.795 1344 420.206L1344 420.755C1299.18 420.629 1304.02 429.95 1271.41 456.933C1245.1 456.879 1218.14 456.255 1191.96 457.855C1187.93 458.101 1178.45 458.688 1174.91 459.725L1176.63 457.961C1210.74 455.147 1237.21 455.514 1271.2 455.515C1284.23 444.885 1304.94 420.959 1320.9 419.961Z"/><path fill="#6E4A15" d="M1280.32 631.329C1280.41 618.462 1280.3 604.953 1280.74 592.139C1280.95 598.179 1280.89 608.59 1281.49 614.67C1283.29 632.69 1279.98 634.187 1267.44 646.169C1261.31 652.027 1254.68 660.282 1248.23 665.776L1247.83 663.793C1257.62 653.172 1269.89 641.599 1280.32 631.329Z"/><path fill="#FCFAFC" d="M1120.3 509.732C1120.88 508.966 1126.69 500.947 1126.47 501.037C1126.71 501.217 1126.95 501.398 1127.18 501.578L1127.72 502.047C1128.74 502.756 1128.81 502.865 1129.95 503.273C1130.31 503.598 1131.05 504.176 1131.29 504.541C1130.88 506.177 1122.14 509.065 1120.3 509.732Z"/><path fill="#432C11" d="M1127.95 474.857C1128.4 474.503 1128.32 474.505 1128.84 474.379C1128.56 474.738 1128.41 474.698 1127.95 474.857Z"/><path fill="#0BFACF" d="M1311.24 483.255L1311.27 525.281C1298.33 539.255 1283.16 552.871 1269.72 566.525C1264.45 571.876 1258.41 577.12 1253.42 582.672C1253.05 600.237 1251.26 618.998 1251.4 636.259C1240 647.609 1225.71 661.337 1215 673.112L1214.56 671.358C1224.33 661.221 1236.59 647.973 1245.77 637.311L1245.52 578.129C1264.14 558.678 1284.3 540.092 1302.68 520.46L1302.73 493.195C1305.46 489.227 1307.95 486.724 1311.24 483.255Z"/><path fill="#1FA27A" d="M1182.83 704.184C1193.24 694.58 1204.08 681.256 1214.56 671.358L1215 673.112C1208.16 680.414 1200.37 687.653 1193.53 695.082C1190.91 697.929 1186.87 701.402 1184.59 704.326L1182.83 704.184Z"/><path fill="#1B3523" d="M1184.59 704.326C1177.76 712.873 1166.61 722.376 1158.89 730.295C1158.55 730.649 1157.98 730.287 1157.95 729.635C1158.25 729.1 1180.72 706.073 1182.83 704.184L1184.59 704.326Z"/><path fill="#0A0A0A" d="M0 408.988C13.8545 408.979 107.338 407.647 113.078 410.086C120.623 413.292 134.094 428.382 141.187 434.526L142.936 434.66L143.06 434.962C145.397 436.475 148.498 439.318 150.254 441.447C152.501 442.979 153.951 444.345 155.824 446.324L156.109 446.715C156.654 447.965 156.766 448.313 157.518 449.431C159.058 450.527 159.578 450.978 160.898 452.252C163.614 455.06 167.6 457.9 169.799 460.467C163.907 460.359 149.2 455.987 141.641 455.759C125.421 455.145 109.099 455.769 92.8698 455.482C85.7635 455.356 75.5774 457.594 70.0993 452.743L68.1714 452.927C67.9981 452.739 67.8248 452.551 67.6516 452.363C56.8004 443.638 40.3841 425.797 27.4631 421.852C23.0689 420.51 4.75412 420.808 0 420.809L0 420.01L0 419.413L0 408.988Z"/><path fill="#4F4F51" d="M23.0139 419.995C27.8516 420.164 31.7854 421.405 35.737 424.191C47.6776 432.61 59.0889 443.158 70.0993 452.743L68.1714 452.927C67.9981 452.739 67.8248 452.551 67.6516 452.363C56.8004 443.638 40.3841 425.797 27.4631 421.852C23.0689 420.51 4.75412 420.808 0 420.809L0 420.01C7.36421 420.019 15.7647 420.278 23.0139 419.995Z"/><path fill="#1A1A1A" d="M0 419.413C5.98517 419.414 17.6141 419.109 23.0139 419.995C15.7647 420.278 7.36421 420.019 0 420.01L0 419.413Z"/><path fill="#898888" d="M143.06 434.962C145.397 436.475 148.498 439.318 150.254 441.447L149.012 441.806C147.145 439.556 145.653 438.368 143.375 436.601C143.224 436.173 143.135 435.43 143.06 434.962Z"/><path fill="#898888" d="M150.254 441.447C152.501 442.979 153.951 444.345 155.824 446.324L154.65 446.638C153.462 445.446 152.969 444.866 151.518 444.007L150.254 441.447Z"/><path fill="#4F4F51" d="M155.824 446.324L156.109 446.715C156.654 447.965 156.766 448.313 157.518 449.431C156.136 448.376 155.77 447.915 154.65 446.638L155.824 446.324Z"/><path fill="#1A1A1A" d="M142.936 434.66L143.06 434.962C143.135 435.43 143.224 436.173 143.375 436.601C142.357 435.949 141.99 435.429 141.187 434.526L142.936 434.66Z"/><path fill="#1A1A1A" d="M149.012 441.806L150.254 441.447L151.518 444.007C150.565 443.227 149.88 442.688 149.012 441.806Z"/><path fill="#0A0A0A" d="M1176.63 457.961C1176.84 457.75 1177.04 457.541 1177.25 457.335C1185.09 449.661 1223.31 413.481 1229.45 410.372C1235.68 407.217 1329.93 408.849 1344 408.842L1344 419.621L1344 420.206C1336.29 419.795 1328.61 420.268 1320.9 419.961C1304.94 420.959 1284.23 444.885 1271.2 455.515C1237.21 455.514 1210.74 455.147 1176.63 457.961Z"/><path fill="#1A1A1A" d="M1320.9 419.961C1325.63 419.206 1339.09 419.308 1344 419.621L1344 420.206C1336.29 419.795 1328.61 420.268 1320.9 419.961Z"/><path fill="#0A0A0A" d="M73.4179 311.902C95.324 312.739 118.344 312.393 140.329 312.127C146.98 312.047 161.922 306.538 168.117 307.404C165.82 309.686 160.409 315.355 158.162 317.171C144.557 329.079 131.358 344.205 117.152 354.557C113.237 357.41 80.4195 356.37 74.4197 356.397C49.6158 356.507 24.7882 356.087 0 356.332L0 348.781C5.82077 348.845 22.1104 349.264 26.7121 347.888C39.4861 344.07 63.3369 321.568 73.4179 311.902Z"/><path fill="#FBBF24" d="M0 377.823C46.9472 378.133 93.6594 378.345 140.529 381.433C154.45 382.35 170.102 382.673 183.847 384.075C182.182 384.5 180.6 384.832 178.927 385.292C170.302 385.146 159.796 386.029 151.022 386.535C136.977 387.407 122.923 388.101 108.861 388.618C72.5852 389.749 36.2931 390.268 -1.16573e-15 390.174L0 377.823Z"/><path fill="#FBBF24" d="M1165.94 383.447C1176.85 383.221 1189.66 382.141 1200.69 381.543C1220.12 380.54 1239.55 379.653 1258.98 378.882C1286.69 377.78 1316.16 378.106 1344 378.046L1344 390.142C1313.25 389.401 1282.26 390.067 1251.37 389.272C1223.84 388.564 1197.46 386.641 1170.12 385.344C1169.45 385.184 1165.55 384.603 1165.44 384.096C1165.54 383.845 1165.76 383.654 1165.94 383.447Z"/><path fill="#1B3523" d="M1210.01 425.56C1206.31 424.281 1182.76 427.294 1176.94 427.797C1148.29 430.267 1115.38 445.108 1092.15 461.932C1073.64 475.344 1050.91 499.131 1034.13 515.83L946.504 602.924C912.441 636.352 885.216 664.684 833.849 667.292C830.876 667.443 823.241 668.364 820.983 666.649C821.593 666.329 834.47 665.928 836.745 665.773C887.555 662.305 914.779 631.877 948.74 598.586L1029.13 519.054C1089.21 459.053 1120.22 425.229 1211.74 423.933L1210.01 425.56Z"/><path fill="#1B3523" d="M210.059 270.253C214.186 271.531 222.422 269.904 227.07 270.321C237.189 271.228 247.667 272.217 257.513 274.895C277.886 280.435 301.255 290.574 317.528 304.276C344.227 326.755 369.18 352.348 388.864 381.23C389.753 382.542 390.464 384.276 390.502 385.851C386.559 397.467 327.627 454.754 315.01 464.889C306.616 471.667 297.508 477.509 287.848 482.313C274.321 488.987 246.204 498.491 231.305 497.433L230.53 496.895C245.237 494.551 253.136 494.024 267.585 489.288C300.698 478.432 321.704 458.428 345.477 434.314C353.731 425.942 362.034 417.891 370.086 409.182C377.029 401.674 383.436 392.869 390.1 385.488C372.336 360.911 359.723 345.857 338.204 324.842C297.802 285.385 263.963 271.157 208.052 271.961L210.059 270.253Z"/><path fill="#FBBF24" d="M89.1209 657.193L203.027 768L192.892 768C169.005 740.965 141.757 713.508 116.766 687.37C108.379 678.598 97.909 667.482 89.255 659.283L89.1209 657.193Z"/><path fill="#FBBF24" d="M193.762 0L203.17 0C195.524 8.35881 186.927 16.7385 178.713 24.5582C153.747 48.3259 129.369 72.6485 104.647 96.6604L103.525 95.3477C114.311 83.5723 126.569 71.549 137.726 59.9282C156.634 40.1678 175.314 20.1904 193.762 2.98501e-13L193.762 0Z"/><path fill="#B5791B" d="M1092.81 497.817L1093.44 499.017C1083.57 507.85 1072.22 520.494 1062.88 530.24C1047.52 546.282 1032.05 562.233 1016.49 578.09L832.613 768L831.043 768L991.456 601.931L1057.7 533.611C1069.07 521.926 1081.06 508.853 1092.81 497.817Z"/><path fill="#B5791B" d="M835.396 4.56152C847.552 17.912 861.53 31.8182 874.136 44.913C897.813 69.8876 921.62 94.7381 945.557 119.463L1040.51 219.224C1053.83 233.193 1067.21 247.936 1080.74 261.564L1079.4 262.156C1051.43 234.083 1023.02 202.882 995.237 174.1C994.883 173.803 994.88 173.808 994.625 173.425C987.056 165.585 979.562 157.672 972.146 149.687C971.427 149.251 971.516 149.251 971.016 148.466C963.386 140.682 955.892 132.766 948.537 124.72C947.798 124.314 947.895 124.312 947.4 123.513C936.622 112.839 925.608 100.936 915.062 89.9323C914.328 89.5219 914.423 89.5178 913.933 88.7187C896.05 71.0423 876.949 49.8715 859.3 31.4827C858.858 30.6782 858.943 30.7072 858.163 30.2729C850.324 21.9168 842.423 13.6193 834.46 5.38115L835.396 4.56152Z"/><path fill="#6E4A15" d="M947.4 123.513C948.209 123.92 948.073 123.842 948.537 124.72C947.798 124.314 947.895 124.312 947.4 123.513Z"/><path fill="#6E4A15" d="M913.933 88.7187C914.74 89.1305 914.604 89.0522 915.062 89.9323C914.328 89.5219 914.423 89.5178 913.933 88.7187Z"/><path fill="#6E4A15" d="M971.016 148.466C971.838 148.863 971.698 148.784 972.146 149.687C971.427 149.251 971.516 149.251 971.016 148.466Z"/><path fill="#898888" d="M1344 407.964L1344 408.842C1329.93 408.849 1235.68 407.217 1229.45 410.372C1223.31 413.481 1185.09 449.661 1177.25 457.335C1177.04 457.541 1176.84 457.75 1176.63 457.961L1174.91 459.725C1170.86 462.562 1167.4 466.666 1163.74 469.921C1152.84 479.635 1140.88 494.184 1129.95 503.273C1128.81 502.865 1128.74 502.756 1127.72 502.047C1129.61 500.95 1141.41 489.284 1143.7 487.069C1153.05 478.004 1162.51 469.064 1172.09 460.252L1173.88 458.423C1179.29 455.44 1203.78 431.348 1210.01 425.56L1211.74 423.933C1217.55 419.207 1223.08 411.414 1230.24 408.834C1237.26 406.304 1330.11 407.855 1344 407.964Z"/><path fill="#4F4F51" d="M72.883 310.523L116.367 310.817C138.205 310.975 149.143 310.847 170.643 304.952L168.117 307.404C161.922 306.538 146.98 312.047 140.329 312.127C118.344 312.393 95.324 312.739 73.4179 311.902C63.3369 321.568 39.4861 344.07 26.7121 347.888C22.1104 349.264 5.82077 348.845 0 348.781L0 347.197C17.1743 347.017 27.2261 350.309 41.5065 338.131C52.099 329.098 62.6757 320 72.883 310.523Z"/><path fill="#6E6E70" d="M158.162 317.171L159.044 317.732C146.74 329.684 130.525 346.761 116.584 356.041C112.581 358.705 79.0707 357.769 71.6336 357.751L0 357.749L0 356.332C24.7882 356.087 49.6158 356.507 74.4197 356.397C80.4195 356.37 113.237 357.41 117.152 354.557C131.358 344.205 144.557 329.079 158.162 317.171Z"/><path fill="#6E6E70" d="M0 407.663C14.4761 407.669 106.722 406.204 113.394 409.01C122.06 412.654 135.633 427.796 142.936 434.66L141.187 434.526C134.094 428.382 120.623 413.292 113.078 410.086C107.338 407.647 13.8545 408.979 0 408.988L0 407.663Z"/><path fill="#4F4F51" d="M1223.45 351.936C1226.26 353.907 1228.22 355.31 1231.66 355.662C1243.36 356.858 1256.33 356.269 1268.1 356.331C1293.38 356.462 1318.75 356.048 1344 356.31L1344 357.592L1265.54 357.787C1257.83 357.789 1250.08 357.846 1242.38 357.753C1233.46 357.646 1229.21 358.187 1221.88 352.534L1223.45 351.936Z"/><path fill="#CFD0D0" d="M170.643 304.952C180.949 296.655 193.9 282.211 203.898 272.921C205.675 271.27 213.7 263.811 214.777 262.537L213.379 261.735L213.463 261.032C215.777 259.193 221.588 257.003 224.539 255.758C218.964 263.374 215.807 264.009 210.059 270.253L208.052 271.961C201.806 276.874 194.037 284.796 187.97 290.336C184.798 293.232 176.569 300.673 173.946 303.643L171.985 305.516C169.27 307.597 161.457 314.962 159.044 317.732L158.162 317.171C160.409 315.355 165.82 309.686 168.117 307.404L170.643 304.952Z"/><path fill="#6E4A15" d="M1080.74 261.564C1103.24 281.591 1126.52 297.48 1156.01 305.452C1160.99 306.798 1169.51 308.738 1174.6 308.418C1174.6 308.765 1174.75 309.226 1174.84 309.561C1170.06 310.411 1159.11 307.797 1154.32 306.344C1126.73 297.964 1100.07 282.251 1079.4 262.156L1080.74 261.564Z"/><path fill="#4F4F51" d="M70.0993 452.743C75.5774 457.594 85.7635 455.356 92.8698 455.482C109.099 455.769 125.421 455.145 141.641 455.759C149.2 455.987 163.907 460.359 169.799 460.467L171.048 461.826C164.87 461.83 151.37 457.233 143.687 457.094C120.339 456.671 96.6643 456.896 73.3346 456.946C71.41 455.619 69.9622 454.414 68.1714 452.927L70.0993 452.743Z"/><path fill="#CFD0D0" d="M162.574 452.271C164.529 454.057 171.352 460.034 172.754 461.68L174.51 463.11C178.437 466.94 212.834 499.885 214.886 500.941C214.826 501.665 214.578 502.662 214.422 503.39C206.901 497.243 191.781 481.407 184.039 473.874C183.577 473.096 183.658 473.125 182.882 472.699C179.149 469.049 174.939 465.355 171.048 461.826L169.799 460.467C167.6 457.9 163.614 455.06 160.898 452.252L162.574 452.271Z"/><path fill="#6E4A15" d="M1092.81 497.817C1096.57 493.855 1104.76 487.795 1109.39 484.6C1131.78 469.149 1148.1 463.877 1173.88 458.423L1172.09 460.252C1160.62 460.805 1139.14 468.83 1128.84 474.379C1128.32 474.505 1128.4 474.503 1127.95 474.857C1114.13 482.267 1105.29 488.683 1093.44 499.017L1092.81 497.817Z"/><path fill="#6E4A15" d="M62.4588 631.727C62.7183 612.453 61.7656 588.081 63.002 569.402C63.4458 572.135 63.3885 584.738 63.4283 588.378L63.7238 631.463C70.957 639.774 81.4006 648.443 89.1209 657.193L89.255 659.283C80.6373 650.102 70.6796 641.166 62.4588 631.727Z"/><path fill="#1B3523" d="M172.754 461.68C175.711 461.433 192.175 465.307 196.752 466.027C208.515 467.867 220.407 468.756 232.312 468.688C235.683 468.643 248.822 468.032 250.692 469.584C237.329 471.274 211.167 469.319 197.617 467.502C192.588 466.827 178.465 463.075 174.51 463.11L172.754 461.68Z"/><path fill="#432C11" d="M65.6258 135.383C61.5249 141.51 65.7481 195.174 62.7541 200.6C62.6711 200.192 62.5472 199.647 62.5444 199.23C62.4377 183.408 62.5909 167.587 62.382 151.763C62.3251 147.455 62.3276 143.098 62.7968 138.813C63.0531 136.471 63.1461 136.511 64.6384 134.875L65.6258 135.383Z"/><path fill="#1B3523" d="M173.946 303.643C188.381 302.039 230.488 296.536 243.378 299.927C240.429 300.59 221.036 300.104 216.281 300.437C201.292 301.488 186.8 302.852 171.985 305.516L173.946 303.643Z"/><path fill="#B5791B" d="M103.525 95.3477L104.647 96.6604L65.6258 135.383L64.6384 134.875C77.4906 121.591 90.4534 108.415 103.525 95.3477Z"/><path fill="#FCFAFC" d="M214.886 500.941C218.309 501.31 222.159 507.624 224.158 510.506C220.556 508.987 216.189 507.343 212.904 505.295C212.945 505.135 212.986 504.974 213.028 504.814C213.446 504.523 214.163 503.724 214.422 503.39C214.578 502.662 214.826 501.665 214.886 500.941Z"/><path fill="#6E6E70" d="M1187.43 318.799C1189.92 321.027 1204.41 333.909 1205.06 335.428C1206.1 336.99 1206.73 337.84 1207.95 339.307C1204.22 336.507 1201.62 333.257 1197.93 330.162C1197.31 329.738 1197.34 329.846 1197.01 329.275C1193.98 326.327 1188.97 322.314 1186.41 319.472L1187.43 318.799Z"/><path fill="#1A1A1A" d="M1197.01 329.275C1197.63 329.59 1197.61 329.554 1197.93 330.162C1197.31 329.738 1197.34 329.846 1197.01 329.275Z"/><path fill="#98671B" d="M1155.61 384.181C1158.44 384.031 1163.69 383.259 1165.94 383.447C1165.76 383.654 1165.54 383.845 1165.44 384.096C1165.55 384.603 1169.45 385.184 1170.12 385.344C1168.06 385.364 1166.26 385.348 1164.21 385.281C1161.23 384.766 1158.58 384.639 1155.61 384.181Z"/><path fill="#0A0A0A" d="M183.847 384.075C185.822 383.735 187.248 383.458 189.158 384.073L189.03 384.32L189.082 384.411C187.689 385.966 180.943 385.473 178.927 385.292C180.6 384.832 182.182 384.5 183.847 384.075Z"/><path fill="#4F4F51" d="M1215.61 345.005C1216.87 346.13 1218.11 347.091 1218.94 348.563C1219.33 349.372 1219.71 350.256 1220.17 351.013C1218.4 349.821 1215.57 346.898 1214.18 345.247L1215.61 345.005Z"/><defs><linearGradient id="gradient_0" gradientUnits="userSpaceOnUse" x1="832.41937" y1="4.1719708" x2="833.52826" y2="2.4507668"><stop offset="0" stop-color="#311C0D"/><stop offset="1" stop-color="#89561B"/></linearGradient></defs><path fill="url(#gradient_0)" d="M829.763 0L831.124 0C832.515 1.43936 834.146 3.03288 835.396 4.56152L834.46 5.38115C833.303 4.60742 830.717 1.20824 829.763 0Z"/><path fill="#898888" d="M156.109 446.715C158.669 448.434 160.344 450.116 162.574 452.271L160.898 452.252C159.578 450.978 159.058 450.527 157.518 449.431C156.766 448.313 156.654 447.965 156.109 446.715Z"/><path fill="#432C11" d="M1164.21 385.281L1163.77 385.302C1162.74 385.351 1154.2 385.654 1154.24 384.289C1154.54 384.122 1155.31 384.18 1155.61 384.181C1158.58 384.639 1161.23 384.766 1164.21 385.281Z"/><path fill="#4F4F51" d="M182.882 472.699C183.658 473.125 183.577 473.096 184.039 473.874C183.247 473.518 183.386 473.561 182.882 472.699Z"/><path fill="#6E4A15" d="M858.163 30.2729C858.943 30.7072 858.858 30.6782 859.3 31.4827C858.539 31.1081 858.645 31.1002 858.163 30.2729Z"/><path fill="#0BFACF" d="M627.414 138.511L689.53 196.669C699.564 206.094 712.574 219.447 723 227.796C723.12 235.44 723.114 243.59 723.376 251.193C760.252 285.357 795.173 322.997 831.493 357.849C840.707 366.69 849.78 375.643 858.768 384.714L759.199 483.095C750.003 492.352 730.495 510.274 723.438 519.243C723.301 526.477 723.098 533.71 722.829 540.94C711.901 552.02 698.538 563.739 686.999 574.372L627.478 629.374C625.375 629.649 625.826 631.306 624.443 630.425C626.795 627.064 644.211 609.846 648.435 605.39C666.452 586.375 684.234 567.139 701.778 547.686C702.515 535.852 702.7 520.57 702.859 508.666C711.452 498.809 731.342 480.464 741.763 470.117L828.302 384.095C819.329 376.074 810.298 366.628 801.587 358.143C783.489 340.66 765.561 323.002 747.804 305.173C735.316 292.666 713.872 272.837 703.18 260.326C702.93 247.101 702.441 233.881 701.713 220.673C678.574 194.378 650.236 164.873 626.082 139.775L627.414 138.511Z"/><path fill="#FBBF24" d="M628.63 239.507L630.314 236.068C642.802 253.024 656.059 269.399 670.045 285.142C679.363 295.438 688.718 303.96 698.417 313.79L768.294 384.371L720.22 433.188C701.569 451.791 682.185 469.059 665.35 489.295C652.884 504.278 640.94 518.821 629.644 534.793L628.655 533.795C628.3 520.016 629.644 500.858 630.212 486.575C652.181 466.085 673.254 443.003 695.135 422.235C707.402 410.592 720.668 397.114 732.138 384.66L661.191 313.686C654.517 306.963 635.256 288.541 630.397 282.044C629.814 268.207 628.746 253.245 628.63 239.507Z"/><path fill="#FBBF24" d="M446.615 122.859L622.629 289.868L684.828 350.517C695.804 361.433 707.641 374.086 718.744 384.549L449.191 641.8L448.179 640.57C456.393 632.716 468.682 618.651 476.768 610.004L535.445 547.699C588.075 492.723 641.036 438.066 694.324 383.729C644.739 333.225 595.492 282.39 546.587 231.226C514.077 196.858 479.267 157.996 446.231 124.945L446.615 122.859Z"/><path fill="#0BFACF" d="M360.865 123.892C398.207 161.858 435.867 199.509 473.841 236.842C497.89 260.72 521.922 284.905 546.419 308.344C553.839 315.442 567.707 314.578 573.453 319.274C579.325 324.075 588.934 334.077 594.548 339.72L638.226 384.07L595.259 425.864C588.962 431.947 580.754 440.3 573.993 445.59C568.184 450.135 551.841 451.726 546.242 457.083C531.262 471.419 516.48 486.851 501.952 501.633L420.445 584.264C418.928 585.375 414.874 588.997 413.729 589.107C432.093 567.979 456.621 544.308 476.341 523.761L540.026 456.475C563.172 432.378 586.101 408.074 608.811 383.565C591.629 366.505 575.019 348.305 558.35 330.744L470.726 239.006L397.432 163.669C387.767 153.746 376.545 143.291 367.413 133.124C365.426 131.508 361.818 128.237 360.633 126.081L359.602 125.47L360.865 123.892Z"/><path fill="#1EB498" d="M360.633 126.081C363.022 126.969 366.177 130.834 367.413 133.124C365.426 131.508 361.818 128.237 360.633 126.081Z"/><path fill="#FBBF24" d="M903.356 226.576C922.589 245.687 942.498 264.123 961.887 283.081C974.027 294.95 1049.95 371.643 1057.65 375.246C1069.37 380.731 1098.6 379.601 1113.19 384.519C1096.21 387.489 1076.96 389.178 1060.22 392.508C1045.16 408.32 1025.95 425.612 1009.91 440.767L939.101 508.366C927.837 519.11 911.989 533.557 901.45 544.79L900.233 543.895C905.622 538.714 910.804 533.003 915.999 527.606C961.315 480.527 1005.41 431.57 1051.85 385.606C1018.12 350.561 984.621 315.303 951.342 279.835C935.258 262.755 919.481 245.328 902.998 228.616L903.356 226.576Z"/><defs><linearGradient id="gradient_1" gradientUnits="userSpaceOnUse" x1="272.65967" y1="348.44464" x2="476.64587" y2="354.40753"><stop offset="0" stop-color="#14C3A4"/><stop offset="1" stop-color="#03FFE0"/></linearGradient></defs><path fill="url(#gradient_1)" d="M276.78 224.439C319.825 266.462 362.092 308.871 406.972 349.041C414.26 355.565 431.161 372.076 438.26 376.602C441.831 378.879 471.377 381.456 477.982 382.541L477.503 385.588C467.437 387.061 444.403 388.237 436.624 391.701C430.524 394.418 355.128 464.967 345.403 475.377L343.457 475.355C364.152 453.918 384.246 431.908 403.715 409.35C411.483 400.521 418.723 391.141 426.728 382.586C414.315 370.322 399.598 351.847 386.966 338.247C361.518 311.287 335.633 284.743 309.32 258.627C308.725 258.187 308.772 258.298 308.431 257.729L306.038 255.342C305.436 254.908 305.489 255.021 305.143 254.452L276.258 225.966L276.78 224.439Z"/><path fill="#3E8779" d="M305.143 254.452C305.812 254.629 305.827 254.699 306.038 255.342C305.436 254.908 305.489 255.021 305.143 254.452Z"/><path fill="#3E8779" d="M308.431 257.729C309.099 257.91 309.112 257.983 309.32 258.627C308.725 258.187 308.772 258.298 308.431 257.729Z"/><path fill="#0BFACF" d="M32.8235 484.048C35.698 486.966 38.6224 490.346 41.383 493.409L41.4526 520.4C45.4647 525.497 56.67 536.003 61.6933 540.951C74.2115 553.2 86.5334 565.649 98.6542 578.291C98.6735 597.786 98.4176 617.28 97.8865 636.767C107.823 647.879 117.934 658.833 128.217 669.625L126.934 671.059C116.821 659.862 103.515 647.234 92.6383 636.392C92.725 619.537 91.5608 599.669 90.8062 582.643C74.1003 567.783 47.7658 540.98 32.7076 524.579L32.8235 484.048Z"/><path fill="#0BFACF" d="M127.187 98.307L128.039 99.9301C120.727 106.908 104.849 124.459 98.3473 132.468C97.9604 151.026 98.4039 172.024 98.6905 190.68C93.8649 196.322 85.3802 204.266 79.7941 209.821C66.8149 222.559 53.9351 235.397 41.1558 248.336C41.0102 257.175 41.2177 266.583 41.2721 275.465C38.7589 278.277 35.6356 281.31 32.964 284.034C32.5458 270.939 32.7551 256.801 32.7103 243.628C40.4006 236.939 47.384 229.537 54.5947 222.325C66.6649 210.283 78.6616 198.166 90.5841 185.978C90.644 168.814 92.6826 150.951 92.7017 133.034C103.768 121.441 115.86 110.01 127.187 98.307Z"/><path fill="#6E4A15" d="M798.517 229.141L955.792 384.942C952.419 389.75 935.302 406.221 930.046 411.456C912.505 428.829 895.053 446.292 877.692 463.846L747.013 595.718C719.184 623.591 689.669 651.995 662.399 680.116L660.375 680.222C667.993 671.308 685.824 654.472 694.737 645.567L761.622 578.722L954.464 385.029C943.931 374.21 932.194 363.296 921.371 352.532L796.54 229.182L798.517 229.141Z"/><path fill="#1B3523" d="M817.214 99.4377C820.512 98.0709 834.901 99.732 838.663 100.266C858.586 103.097 883.358 113.43 899.773 125.078C914.408 135.464 932.078 154.334 945.139 167.474L1025.86 248.264C1046.11 268.538 1068.68 294.191 1092.72 309.442C1118.29 325.664 1149.79 335.942 1179.77 339.182C1186.04 339.86 1205.19 339.574 1209.91 341.721C1205.67 342.296 1199.13 341.514 1194.6 341.366C1143.82 339.712 1091.29 319.012 1056.57 281.184C1047.67 271.497 1036.94 261.471 1027.62 252.112L945.998 170.384C913.535 137.728 887.197 108.917 838.969 101.429C834.645 100.758 819.627 100.599 817.214 99.4377Z"/><defs><linearGradient id="gradient_2" gradientUnits="userSpaceOnUse" x1="849.32739" y1="378.41269" x2="898.59174" y2="382.31229"><stop offset="0" stop-color="#1DC2A4"/><stop offset="1" stop-color="#02FFDA"/></linearGradient></defs><path fill="url(#gradient_2)" d="M852.682 338.186C861.582 346.552 870.402 355.002 879.142 363.535C886.024 370.274 894.253 378.735 901.67 384.667C889.393 395.094 875.051 410.016 862.935 421.394L862.227 419.981C878.878 403.93 877.853 404.508 885.928 382.828C873.688 359.073 871.998 359.389 852.274 340.181L852.682 338.186Z"/><path fill="#1B3523" d="M251.615 322.631C266.527 320.029 290.793 325.415 303.675 332.984C325.21 345.637 338.143 360.269 345.245 383.813C340.439 396.524 336.737 404.202 327.22 414.366C314.562 427.885 295.657 437.904 277.345 440.52C270.63 441.479 261.069 441.567 254.109 441.803L253.505 440.86C254.068 440.498 272.399 439.873 275.275 439.523C283.929 438.519 292.338 435.996 300.116 432.07C321.927 421.308 335.889 406.463 343.722 383.521C343.019 381.33 342.269 379.155 341.472 376.997C331.122 348.986 302.229 328.366 273.058 324.15C268.023 323.422 255.065 324.524 251.615 322.631Z"/><path fill="#3E8779" d="M485.681 458.953C473.398 471.27 458.424 484.234 445.534 496.772L344.035 596.534C336.389 604.012 328.783 611.674 320.716 618.683C318.047 621.002 312.216 628.689 309.494 629.455C309.85 628.183 466.901 473.982 483.784 456.925L485.681 458.953Z"/><path fill="#98671B" d="M814.166 567.757C818.981 564.062 828.846 554.376 833.69 549.827L870.489 515.103C888.994 497.696 907.406 480.189 925.724 462.585C938.385 450.6 951.996 438.183 964.19 425.795L966.281 426.948C959.347 432.451 949.989 441.726 943.25 448.017C927.537 462.717 911.931 477.531 896.432 492.457C888.456 500.088 817.26 566.165 816.49 569.406L818.887 570.149L818.976 570.784C817.998 571.32 816.96 571.993 815.891 572.216C815.143 570.118 815.691 568.996 814.166 567.757Z"/><path fill="#B5791B" d="M815.703 200.67C819.296 205.911 843.633 227.972 849.671 233.702L935.394 314.843C942.787 321.936 959.115 336.271 965.447 343.098C964.897 343.702 964.403 344.305 963.881 344.931C957.888 337.645 939.606 320.925 932.14 313.742C931.134 313.231 930.929 312.859 930.326 311.915L918.358 300.637C917.744 300.205 917.777 300.308 917.431 299.741L909.175 292.066C908.196 291.594 907.452 290.83 906.975 289.859L896.057 279.588C895.183 279.181 894.944 278.894 894.466 278.079L882.937 267.114C882.164 266.766 882.273 266.759 881.778 265.941L870.455 255.307C869.587 254.889 869.346 254.609 868.885 253.785C865.542 250.413 861.496 246.777 857.998 243.487C856.971 243.009 856.771 242.622 856.175 241.668L844.219 230.383C843.584 229.958 843.621 230.069 843.292 229.491C840.515 226.763 837.242 223.851 834.362 221.174C833.491 220.754 833.25 220.476 832.794 219.646C826.785 213.719 820.491 208.092 814.242 202.419L815.703 200.67Z"/><path fill="#432C11" d="M906.975 289.859C908.183 290.563 908.477 290.853 909.175 292.066C908.196 291.594 907.452 290.83 906.975 289.859Z"/><path fill="#6E4A15" d="M856.175 241.668C857.24 242.199 857.371 242.424 857.998 243.487C856.971 243.009 856.771 242.622 856.175 241.668Z"/><path fill="#6E4A15" d="M930.326 311.915C931.406 312.432 931.532 312.657 932.14 313.742C931.134 313.231 930.929 312.859 930.326 311.915Z"/><path fill="#432C11" d="M832.794 219.646C833.837 220.203 833.778 220.147 834.362 221.174C833.491 220.754 833.25 220.476 832.794 219.646Z"/><path fill="#432C11" d="M894.466 278.079C895.523 278.619 895.461 278.563 896.057 279.588C895.183 279.181 894.944 278.894 894.466 278.079Z"/><path fill="#432C11" d="M868.885 253.785C869.932 254.336 869.872 254.279 870.455 255.307C869.587 254.889 869.346 254.609 868.885 253.785Z"/><path fill="#6E4A15" d="M881.778 265.941C882.566 266.353 882.481 266.322 882.937 267.114C882.164 266.766 882.273 266.759 881.778 265.941Z"/><path fill="#432C11" d="M843.292 229.491C843.905 229.812 843.889 229.777 844.219 230.383C843.584 229.958 843.621 230.069 843.292 229.491Z"/><path fill="#6E4A15" d="M917.431 299.741C918.06 300.053 918.041 300.014 918.358 300.637C917.744 300.205 917.777 300.308 917.431 299.741Z"/><path fill="#B5791B" d="M640.129 72.258L798.517 229.141L796.54 229.182C788.884 221.002 778.771 211.474 770.693 203.475L723.267 156.586L639.22 73.0014L640.129 72.258Z"/><path fill="#0BFACF" d="M465.225 288.567C469.01 292.142 483.925 306.69 487.52 308.88L488.147 308.54L488.116 304.976L488.725 304.7C494.433 310.624 502.888 323.833 509.065 331.396L507.191 332.163C502.391 328.81 483.37 316.783 480.62 313.523C482.215 312.895 483.795 312.965 485.528 312.882C485.126 310.307 467.733 293.492 464.59 290.329L465.225 288.567Z"/><path fill="#1B3523" d="M486.028 386.495L486.554 386.964C485.408 391.906 384.661 474.604 373.799 486.918L373.186 486.172C373.936 483.166 439.931 427.735 448.713 419.378C456.779 411.704 477.012 393.844 486.028 386.495Z"/><path fill="#1C5744" d="M511.779 334.214C516.818 337.939 532.552 353.634 537.9 358.737C543.153 363.748 560.718 379.973 564.612 385.022C546.525 403.051 527.675 420.106 509.505 438.131L509.473 436.073C510.35 434.767 513.227 432.221 514.456 431.043C530.58 415.585 547.006 400.606 562.806 384.802C548.586 370.018 525.109 348.091 509.759 334.209L511.779 334.214Z"/><path fill="#432C11" d="M684.775 521.043L685.187 521.12L685.593 521.774C684.002 524.416 666.823 540.855 663.495 544.11L618.144 588.901C608.34 598.416 594.82 610.322 586.152 620.601L585.088 620.032C585.653 617.818 674.809 530.948 684.775 521.043Z"/><path fill="#1B3523" d="M369.06 277.553C372.809 278.552 403.823 306.97 408.682 311.298L458.89 356.141C463.498 360.332 484.305 378.295 487.05 381.766L486.25 382.351C483.36 380.275 475.201 372.685 472.395 370.148L444.493 344.869C420.136 323.06 392.585 299.822 369.06 277.553Z"/><path fill="#FBBF24" d="M584.738 576.082C598.771 561.759 614.861 548.951 628.655 533.795L629.644 534.793C626.917 538.545 619.948 544.808 616.404 548.391C606.469 558.439 595.217 568.43 586.025 579.098L595.752 578.242L575.516 586.212C578.818 580.027 581.806 573.213 584.743 566.811L584.738 576.082Z"/><path fill="#0BFACF" d="M484.341 450.728C492.516 446.086 501.788 441.28 509.473 436.073L509.505 438.131C502.401 446.249 495.585 454.59 488.426 462.75L488.454 462.306C488.708 458.77 490.212 454.447 485.681 458.953L483.784 456.925C485.173 455.641 487.838 454.426 485.722 453.203C482.134 453.462 478.886 453.982 484.341 450.728Z"/><path fill="#1C5744" d="M238.993 580.176C243.822 576.347 260.526 558.84 265.563 553.707L314.832 504.087C322.326 496.49 335.959 481.824 343.457 475.355L345.403 475.377C320.594 501.313 293.892 526.456 268.653 552.006C260.863 559.893 246.964 572.891 240.021 580.905L238.993 580.176Z"/><path fill="#1A1A1A" d="M240.021 580.905C218.245 604.197 193.974 626.355 171.809 649.371C166.003 655.4 159.717 661.714 153.54 667.335L152.555 667.268L153.001 667.766L151.878 668.433C152.886 665.802 231.993 586.534 238.993 580.176L240.021 580.905Z"/><path fill="#FBBF24" d="M965.447 343.098C966.897 340.143 965.488 338.599 966.325 337.042L966.419 337.016C969.822 340.122 979.791 358.684 984.017 364.122L983.151 364.934C979.809 361.092 960.454 347.175 959.551 345.638L959.592 345.508C960.846 344.822 963.406 345.933 963.881 344.931C964.403 344.305 964.897 343.702 965.447 343.098Z"/><path fill="#FBBF24" d="M982.995 405.701L983.929 406.186C982.086 409.839 970.423 427.378 967.782 430.905C967.516 431.299 966.821 432.712 966.119 432.368C965.67 431.723 966.7 428.544 966.9 427.298L966.281 426.948L964.19 425.795C964.548 425.43 964.747 425.376 964.794 424.982C964.262 424.256 961.041 425.95 960.899 424.275C961.357 423.331 980.519 407.819 982.995 405.701Z"/><path fill="#FBBF24" d="M966.9 427.298C967.423 428.848 967.53 429.306 967.782 430.905C967.516 431.299 966.821 432.712 966.119 432.368C965.67 431.723 966.7 428.544 966.9 427.298Z"/><path fill="#1C5744" d="M157.602 106.625C162.99 112.667 170.779 120.022 176.636 125.829L220 168.154C222.51 170.624 236.536 184.006 237.822 185.959C238.213 189.157 246.161 195.038 248.575 198.49C240.991 192.243 228.552 178.362 220.955 171.136C199.38 150.615 178.363 127.911 156.879 107.462L157.602 106.625Z"/><path fill="#432C11" d="M602.858 161.865C605.083 163.535 605.858 164.478 607.412 166.744C609.198 169.256 623.227 182.66 626.143 185.512L671.537 229.872C674.061 232.344 683.61 241.068 684.852 243.478C680.426 241.457 667.265 227.143 663.073 223.066L601.02 162.211L602.858 161.865Z"/><path fill="#0A0A0A" d="M602.858 161.865C605.083 163.535 605.858 164.478 607.412 166.744C605.202 165.166 603.899 164.398 602.858 161.865Z"/><path fill="#432C11" d="M662.399 680.116C646.78 695.788 631.059 711.359 615.238 726.828C609.28 732.658 599.31 743.268 593.215 748.178L593.136 747.702C596.746 742.947 615.952 723.987 621.585 718.653C633.495 707.375 648.56 690.45 660.375 680.222L662.399 680.116Z"/><path fill="#354229" d="M251.931 15.7644C255.966 19.3627 260.268 23.2357 263.942 27.2067C281.841 46.556 303.398 64.5761 320.797 84.1782L320.943 86.1395L274.925 40.0829C269.623 34.7803 255.454 21.2772 251.931 15.7644Z"/><path fill="#1FA27A" d="M413.729 589.107C414.874 588.997 418.928 585.375 420.445 584.264C405.078 601.943 383.018 621.414 366.251 639.477L365.977 637.871L397.174 605.671C400.75 601.99 410.14 591.848 413.729 589.107Z"/><path fill="#E0931E" d="M586.3 191.641C595.556 200.637 604.761 209.685 613.916 218.784C617.872 222.694 627.584 231.95 630.314 236.068L628.63 239.507C628.246 236.13 627.155 234.594 624.827 232.235C611.85 219.085 598.273 204.795 584.52 192.596C585.116 192.283 585.71 191.965 586.3 191.641Z"/><path fill="#3E8779" d="M128.217 669.625C132.622 674.299 176.006 718.915 176.602 720.111L175.732 720.754C172.394 716.815 166.791 711.732 163.082 707.814C151.616 695.702 137.87 683.435 126.934 671.059L128.217 669.625Z"/><path fill="#0A0A0A" d="M633.215 67.1574C630.55 65.6272 592.848 27.307 592.315 25.6956C595.538 27.4115 626.154 57.8133 628.155 60.9789C631.803 63.7175 636.989 68.8442 640.129 72.258L639.22 73.0014C637.137 71.1349 635.19 69.1376 633.215 67.1574Z"/><path fill="#6E4A15" d="M628.155 60.9789C631.803 63.7175 636.989 68.8442 640.129 72.258L639.22 73.0014C637.137 71.1349 635.19 69.1376 633.215 67.1574C632.283 65.5352 630.125 64.1678 628.155 60.9789Z"/><path fill="#1FA27A" d="M320.797 84.1782C333.988 97.0932 348.188 110.61 360.865 123.892L359.602 125.47C346.84 112.238 333.953 99.1273 320.943 86.1395L320.797 84.1782Z"/><path fill="#432C11" d="M246.451 761.178C250.428 753.83 284.843 719.753 292.327 712.633L293.553 713.183C291.294 715.999 282.53 724.37 279.603 727.37C268.636 738.721 257.585 749.991 246.451 761.178Z"/><path fill="#432C11" d="M984.017 364.122C990.913 371.021 997.767 377.96 1004.58 384.94C997.906 392.3 990.143 399.29 983.929 406.186L982.995 405.701C984.599 403.303 999.638 388.236 1002.86 384.834C996.931 379.17 988.383 371.093 983.151 364.934L984.017 364.122Z"/><path fill="#1FA27A" d="M237.822 185.959C250.907 198.685 263.893 211.512 276.78 224.439L276.258 225.966C267.18 217.424 257.5 207.359 248.575 198.49C246.161 195.038 238.213 189.157 237.822 185.959Z"/><path fill="#FBBF24" d="M575.542 182.993C580.157 185.197 583.876 186.808 588.583 188.717C589.704 188.996 590.694 189.145 591.543 189.917L591.534 190.037C590.732 190.629 588.364 190.117 585.899 190.966L586.3 191.641C585.71 191.965 585.116 192.283 584.52 192.596C584.059 195.78 584.528 197.156 584.751 200.301C581.667 194.52 578.441 188.828 575.542 182.993Z"/><path fill="#E0931E" d="M588.583 188.717C589.704 188.996 590.694 189.145 591.543 189.917L591.534 190.037C590.732 190.629 588.364 190.117 585.899 190.966C585.565 189.013 586.647 189.83 588.583 188.717Z"/><path fill="#6E4A15" d="M331.395 674.415C321.828 685.577 304.267 702.131 293.553 713.183L292.327 712.633C302.833 701.466 313.594 690.54 324.599 679.865C324.905 679.77 329.491 675.626 331.395 674.415Z"/><path fill="#5A7337" d="M324.599 679.865C325.855 678.069 335.001 669.097 337.067 667.013L365.977 637.871L366.251 639.477C354.779 651.041 343.087 663.126 331.395 674.415C329.491 675.626 324.905 679.77 324.599 679.865Z"/><path fill="#1B3523" d="M153.185 71.688C155.382 68.6908 183.99 39.6919 185.242 39.3072L185.521 39.4212C185.775 40.3416 156.498 70.5987 153.774 73.0057L153.185 71.688Z"/><path fill="#898888" d="M370.926 197.508C378.868 202.904 396.246 223.405 404.704 230.042L404.008 231.289C397.544 225.696 385.833 213.484 379.222 207.021C376.218 203.248 373.386 201.584 370.926 197.508Z"/><path fill="#FBBF24" d="M804.727 576.09C805.576 574.71 813.279 561.635 813.359 561.614C813.858 562.832 813.636 565.443 814.166 567.757C815.691 568.996 815.143 570.118 815.891 572.216L804.727 576.09Z"/><path fill="#FBBF24" d="M804.311 192.827C806 193.524 818.8 198.238 818.691 199.267C816.967 199.981 816.281 198.989 815.703 200.67L814.242 202.419L813.059 202.051C812.373 202.666 811.885 203.08 811.271 203.77C808.989 200.072 806.626 196.503 804.311 192.827Z"/><path fill="#1FA27A" d="M153.185 71.688L153.774 73.0057C145.677 80.199 136.011 92.1534 128.039 99.9301L127.187 98.307C134.924 89.5895 145.003 80.1633 153.185 71.688Z"/><path fill="#6E6E70" d="M404.704 230.042C407.759 232.712 431.023 255.382 431.938 257.23C433.255 259.395 434.547 260.455 435.381 261.865C433.01 260.777 408.809 235.283 404.008 231.289L404.704 230.042Z"/><path fill="#3E8779" d="M826.78 313.682C830.842 317.549 850.09 334.881 852.682 338.186L852.274 340.181C845.914 334.209 839.964 327.461 833.437 321.641C831.274 319.712 828.463 316.237 826.161 314.727L826.78 313.682Z"/><path fill="#1C5744" d="M824.074 457.885C826.28 455.288 845.318 436.287 847.451 434.684L849.377 434.692C844.478 439.982 837.442 446.138 832.147 451.397C831.389 452.546 824.78 460.042 823.189 459.133C823.032 458.655 823.796 458.161 824.074 457.885Z"/><path fill="#1B3523" d="M824.074 457.885C828.003 455.79 830.214 452.131 832.147 451.397C831.389 452.546 824.78 460.042 823.189 459.133C823.032 458.655 823.796 458.161 824.074 457.885Z"/><path fill="#98671B" d="M878.213 201.858C884.599 209.085 897.108 218.99 903.356 226.576L902.998 228.616C895.777 221.475 884.847 208.776 877.444 202.634L878.213 201.858Z"/><path fill="#B5791B" d="M876.968 567.255C883.529 561.511 893.522 550.311 900.233 543.895L901.45 544.79C894.406 552.103 884.657 560.619 878.154 567.797L876.968 567.255Z"/><path fill="#6E6E70" d="M349.263 176.5C351.745 178.216 369.801 195.335 370.926 197.508C373.386 201.584 376.218 203.248 379.222 207.021C371.198 200.686 360.94 187.894 352.267 180.783C351.001 179.147 350.347 178.278 349.263 176.5Z"/><path fill="#898888" d="M431.938 257.23C434.59 259.196 454.833 278.562 456.399 280.919C457.34 282.331 458.115 283.416 459.152 284.763C455.41 282.04 440.196 266.36 435.381 261.865C434.547 260.455 433.255 259.395 431.938 257.23Z"/><path fill="#4F4F51" d="M352.267 180.783C349.208 178.249 330.172 159.277 326.752 154.898C326.657 154.777 326.829 154.639 326.985 154.49C327.673 154.555 348.551 175.12 349.263 176.5C350.347 178.278 351.001 179.147 352.267 180.783Z"/><path fill="#3E8779" d="M605.734 117.295C610.412 122.59 618.415 129.396 623.687 134.919L622.528 136.201C617.42 131.125 610.081 122.798 605.055 118.351L605.734 117.295Z"/><path fill="#1EB498" d="M862.227 419.981L862.935 421.394C858.771 425.46 853.221 430.489 849.377 434.692L847.451 434.684C852.32 429.727 857.246 424.825 862.227 419.981Z"/><path fill="#1EB498" d="M624.443 630.425C625.826 631.306 625.375 629.649 627.478 629.374C626.261 631.417 615.43 641.037 612.959 643.6L612.173 642.478C615.672 639.147 620.962 633.139 624.443 630.425Z"/><path fill="#0BFACF" d="M477.982 382.541C479.847 382.711 487.609 383.376 488.88 383.794C492.812 385.087 476.886 385.659 477.503 385.588L477.982 382.541Z"/><path fill="#1B3523" d="M605.91 650.651C604.686 651.984 594.336 662.966 593.871 660.709C594.485 659.444 602.492 651.647 604.011 650.645L605.91 650.651Z"/><path fill="#B5791B" d="M448.179 640.57L449.191 641.8C446.701 644.949 441.916 648.505 439.127 651.812L437.452 651.623C440.944 648.541 444.607 643.919 448.179 640.57Z"/><path fill="#1B3523" d="M605.055 118.351C603.388 116.942 594.161 107.918 593.852 106.684C594.008 106.349 593.882 106.471 594.246 106.336C595.126 106.595 604.54 115.847 605.734 117.295L605.055 118.351Z"/><path fill="#98671B" d="M436.866 113.806C439.671 116.497 444.329 120.138 446.615 122.859L446.231 124.945C443.227 122.065 439.492 117.472 436.244 115.123L436.866 113.806Z"/><path fill="#1A1A1A" d="M179.006 722.379C180.184 723.49 184.787 728.308 185.384 729.506L185.331 730.062L185.581 730.105C185.336 730.631 184.78 730.157 184.452 729.91C181.711 727.842 179.952 725.332 177.801 722.926L179.006 722.379Z"/><path fill="#3E8779" d="M604.011 650.645C606.592 647.988 609.471 645 612.173 642.478L612.959 643.6C610.694 646.01 608.094 648.237 605.91 650.651L604.011 650.645Z"/><path fill="#1EB498" d="M456.399 280.919C458.372 282.398 463.311 286.741 465.225 288.567L464.59 290.329C462.727 288.519 460.966 286.439 459.152 284.763C458.115 283.416 457.34 282.331 456.399 280.919Z"/><path fill="#0A0A0A" d="M156.879 107.462C148.076 100.644 152.555 99.0907 157.602 106.625L156.879 107.462Z"/><path fill="#432C11" d="M877.444 202.634C870.14 197.047 871.388 193.842 878.213 201.858L877.444 202.634Z"/><path fill="#1EB498" d="M623.687 134.919C624.915 136.193 626.15 137.29 627.414 138.511L626.082 139.775C624.875 138.624 623.715 137.385 622.528 136.201L623.687 134.919Z"/><path fill="#432C11" d="M439.127 651.812C434.55 657.197 432.108 656.095 437.452 651.623L439.127 651.812Z"/><path fill="#6E4A15" d="M876.968 567.255L878.154 567.797C877.493 568.487 874.068 572.26 873.175 571.838C872.762 570.833 876.156 568.014 876.968 567.255Z"/><path fill="#1EB498" d="M509.065 331.396C510.122 332.151 510.906 333.261 511.779 334.214L509.759 334.209L507.191 332.163L509.065 331.396Z"/><path fill="#FBBF24" d="M811.271 203.77C811.885 203.08 812.373 202.666 813.059 202.051C813.332 203.121 814.22 205.573 813.414 206.5C812.685 206.598 811.593 204.297 811.271 203.77Z"/><defs><linearGradient id="gradient_3" gradientUnits="userSpaceOnUse" x1="600.83868" y1="159.6171" x2="599.53064" y2="160.64211"><stop offset="0" stop-color="#1A1307"/><stop offset="1" stop-color="#3C2914"/></linearGradient></defs><path fill="url(#gradient_3)" d="M601.02 162.211C600.341 161.549 599.348 160.624 598.825 159.858L599.01 160.082C598.667 159.485 598.266 159.349 598.814 158.883C599.707 158.885 601.9 161.13 602.858 161.865L601.02 162.211Z"/><path fill="#1A1A1A" d="M826.161 314.727C821.956 311.316 822.064 308.907 826.78 313.682L826.161 314.727Z"/><path fill="#432C11" d="M436.244 115.123C435.266 114.31 434.063 113.509 433.547 112.292C433.41 111.971 433.526 111.572 433.923 111.646C435.076 111.861 436.154 112.988 436.866 113.806L436.244 115.123Z"/><path fill="#1B3523" d="M176.602 720.111C177.563 720.893 178.14 721.501 179.006 722.379L177.801 722.926C177.073 722.187 176.43 721.525 175.732 720.754L176.602 720.111Z"/><path fill="#1B3523" d="M226.586 497.226C227.766 496.866 227.673 496.867 228.852 497.231C227.721 497.904 227.714 497.903 226.586 497.226Z"/></svg>