<svg xmlns="http://www.w3.org/2000/svg" width="32" height="32" fill="none" viewBox="0 0 32 32"><path fill="url(#a)" d="M15.433 3.7a.972.972 0 0 1 0 1.934l-.1.005H14c-2.541 0-4.35.002-5.723.186-1.344.181-2.125.52-2.695 1.091-.57.57-.91 1.351-1.09 2.695-.185 1.373-.187 3.182-.187 5.723V18c0 2.541.002 4.35.186 5.723.181 1.344.52 2.125 1.091 2.695.57.57 1.351.91 2.695 1.09 1.373.185 3.182.187 5.723.187h2.666c2.541 0 4.35-.002 5.723-.186 1.344-.181 2.125-.52 2.695-1.091l.105-.11c.507-.56.816-1.325.986-2.585.184-1.373.186-3.182.186-5.723v-1.333a.972.972 0 0 1 1.944 0V18c0 2.486.002 4.45-.204 5.981-.21 1.56-.651 2.82-1.643 3.811-.991.991-2.25 1.433-3.81 1.643-1.532.205-3.496.204-5.982.204H14c-2.486 0-4.45.002-5.981-.204-1.56-.21-2.82-.651-3.811-1.643s-1.433-2.25-1.643-3.81C2.36 22.45 2.361 20.485 2.361 18v-2.666c0-2.486-.001-4.45.204-5.981.21-1.56.652-2.82 1.643-3.811.992-.992 2.25-1.433 3.81-1.643 1.533-.206 3.496-.204 5.982-.204h1.333zm5.333 17.333a.972.972 0 0 1 0 1.934l-.099.005H10a.972.972 0 0 1 0-1.944h10.667zM15.433 15.7a.972.972 0 0 1 0 1.934l-.1.005H10a.972.972 0 0 1 0-1.944h5.333zM24 2.361a5.64 5.64 0 0 1 0 11.278A5.64 5.64 0 0 1 24 2.36m0 1.945a3.696 3.696 0 1 0 0 7.39 3.696 3.696 0 0 0 0-7.39"/><defs><linearGradient id="a" x1="2.361" x2="29.639" y1="2.361" y2="29.638" gradientUnits="userSpaceOnUse"><stop stop-color="#e2b0ff"/><stop offset="1" stop-color="#9f44d3"/></linearGradient></defs></svg>