<svg xmlns="http://www.w3.org/2000/svg" width="28" height="28" fill="none" viewBox="0 0 28 28"><path fill="url(#a)" d="M14 .362c2.958 0 5.274-.001 7.078.242 1.832.246 3.282.76 4.42 1.898s1.653 2.588 1.9 4.42c.242 1.804.24 4.121.24 7.079s.002 5.274-.24 7.078c-.247 1.832-.762 3.282-1.9 4.42s-2.588 1.653-4.42 1.9c-1.804.242-4.12.24-7.078.24s-5.275.002-7.08-.24c-1.831-.247-3.281-.762-4.419-1.9S.849 22.911.603 21.079C.36 19.275.36 16.96.36 14.001s0-5.275.243-7.08c.246-1.831.76-3.281 1.898-4.42C3.639 1.365 5.089.85 6.921.605 8.725.36 11.042.362 14 .362m0 1.944c-3.013 0-5.175.001-6.82.222-1.617.218-2.588.631-3.305 1.348s-1.13 1.688-1.348 3.305c-.22 1.644-.222 3.807-.222 6.82 0 3.012.001 5.175.222 6.82.218 1.615.63 2.587 1.347 3.304s1.689 1.13 3.306 1.348c1.645.22 3.807.223 6.82.223 3.012 0 5.175-.002 6.82-.223 1.616-.218 2.588-.631 3.305-1.348.716-.717 1.13-1.688 1.347-3.305.22-1.644.223-3.807.223-6.819s-.002-5.176-.223-6.82c-.218-1.617-.631-2.588-1.348-3.305s-1.688-1.13-3.305-1.348c-1.644-.22-3.806-.222-6.819-.222m.448 7.295a.972.972 0 0 1 1.807.707l-2.666 8a.973.973 0 0 1-1.844-.616l2.667-8zm-6.416.998a.972.972 0 0 1 1.269 1.47l-1.636 1.41c-.28.243-.463.4-.585.521.122.12.304.28.585.521l1.636 1.41.072.069a.972.972 0 0 1-1.262 1.464l-.079-.06-1.635-1.41c-.322-.278-.64-.55-.867-.806-.208-.235-.436-.563-.49-.996l-.012-.191.012-.192c.054-.433.282-.76.49-.996.226-.256.545-.528.867-.805zm10.566.101a.97.97 0 0 1 1.369-.101l1.636 1.409.47.41c.147.135.284.267.397.395.238.27.5.659.5 1.188s-.262.918-.5 1.188c-.113.127-.25.26-.398.394l-.47.41-1.635 1.41a.972.972 0 0 1-1.268-1.471l1.635-1.41c.281-.243.463-.401.585-.522a14 14 0 0 0-.585-.52l-1.635-1.41a.97.97 0 0 1-.101-1.37"/><defs><linearGradient id="a" x1=".361" x2="27.638" y1=".362" y2="27.639" gradientUnits="userSpaceOnUse"><stop stop-color="#5efce8"/><stop offset="1" stop-color="#736efe"/></linearGradient></defs></svg>