<svg xmlns="http://www.w3.org/2000/svg" width="30" height="30" fill="none" viewBox="0 0 30 30"><path fill="url(#a)" d="M21.306 17.848c.587-1.489 2.648-1.536 3.328-.14l.06.14.001.001.049.123.117.279a5.83 5.83 0 0 0 3.166 3.006l.124.048h.001c1.537.607 1.537 2.782 0 3.39l-.126.048h.001a5.83 5.83 0 0 0-3.283 3.284l-.049.124v.001c-.608 1.537-2.783 1.537-3.39 0l-.048-.125a5.83 5.83 0 0 0-3.285-3.283v-.001l-.123-.048c-1.538-.608-1.538-2.783 0-3.39l.123-.048a5.83 5.83 0 0 0 3.285-3.285l.048-.123m1.694.988A7.77 7.77 0 0 1 18.836 23 7.77 7.77 0 0 1 23 27.163 7.77 7.77 0 0 1 27.163 23 7.77 7.77 0 0 1 23 18.836M14.334.696c2.163 0 3.854-.002 5.202.126 1.362.13 2.475.399 3.455 1a7.64 7.64 0 0 1 2.521 2.52c.6.98.87 2.093 1 3.456.128 1.348.127 3.038.127 5.202a.972.972 0 0 1-1.944 0c0-2.201 0-3.784-.118-5.019-.116-1.22-.339-2-.72-2.623a5.7 5.7 0 0 0-1.88-1.88c-.624-.383-1.404-.605-2.625-.721-1.234-.118-2.817-.119-5.018-.119h-.667c-2.522 0-4.335.002-5.74.154-1.386.15-2.258.438-2.94.934a5.7 5.7 0 0 0-1.26 1.26c-.497.683-.785 1.555-.935 2.941-.152 1.405-.154 3.218-.154 5.74 0 2.521.002 4.335.154 5.739.15 1.386.438 2.259.934 2.941.352.484.777.909 1.26 1.26.683.496 1.555.785 2.942.935 1.404.152 3.217.153 5.739.153a.972.972 0 0 1 .1 1.939l-.1.004-1.759-.003c-1.662-.007-3.04-.037-4.19-.162-1.551-.168-2.805-.517-3.874-1.294a7.6 7.6 0 0 1-1.508-1.45l-.182-.239c-.777-1.07-1.126-2.323-1.294-3.875-.166-1.533-.165-3.47-.165-5.948S.694 9.252.86 7.719c.168-1.552.517-2.806 1.294-3.875a7.6 7.6 0 0 1 1.69-1.69C4.913 1.377 6.167 1.028 7.719.86c1.533-.166 3.47-.165 5.948-.165zM19 7.361c.536 0 .97.436.97.972v1.333a.972.972 0 0 1-1.942 0v-.362h-3.39v8.724H15l.098.005a.972.972 0 0 1 0 1.933L15 19.97h-2.667a.972.972 0 1 1 0-1.942h.362V9.305h-3.39v.362a.973.973 0 0 1-1.944 0V8.334c0-.537.435-.972.972-.972z"/><defs><linearGradient id="a" x1=".695" x2="29.305" y1=".695" y2="29.305" gradientUnits="userSpaceOnUse"><stop stop-color="#ffd3a5"/><stop offset="1" stop-color="#fd6585"/></linearGradient></defs></svg>