<?xml version="1.0" encoding="utf-8" ?><svg xmlns="http://www.w3.org/2000/svg" xmlns:xlink="http://www.w3.org/1999/xlink" width="1344" height="768" viewBox="0 0 1344 768"><path fill="#0A0A0A" d="M0 0L1344 0L1344 118.831L1344 122.139L1344 168.11L1344 212.059L1344 270.491L1344 275.799L1344 356.913L1344 412.46L1344 468.001L1344 471.36L1344 522.6L1344 525.766L1344 566.884L1344 611.602L1344 662.183L1344 665.388L1344 768L0 768L0 665.375L0 662.01L0 612.713L0 564.38L0 528.539L0 525.539L0 481.229L0 478.264L0 412.656L0 356.937L0 274.541L0 250.141L0 216.645L0 168.532L0 0Z"/><path fill="#68EBCD" d="M539.384 160.565C546.765 157.413 575.976 158.579 585.656 158.589L657.583 158.657C705.824 158.671 758.198 157.491 806.081 158.684C808.574 160.517 811.087 162.323 813.619 164.102C833.289 190.431 855.954 221.837 876.515 247.251L1080.28 246.982L1152.8 247.056C1163.83 247.094 1187.19 245.742 1196.8 249.533C1208.76 254.255 1212.52 272.794 1204.46 282.556C1198.12 291.718 1190.86 300.484 1183.99 309.3L1146.28 357.835L1121.65 389.87C1114.95 398.602 1107.43 411.823 1095.54 412.442C1085.38 412.97 1075.11 412.783 1064.93 412.76L1008.18 412.683L812.001 412.743C799.546 428.855 787.198 445.049 774.958 461.324C769.303 468.909 761.837 478.328 756.531 485.914C740.631 508.65 736.163 507.358 710.028 507.349L676.701 507.323L638.391 507.319C623.139 507.362 606.608 510.683 596.696 497.285C572.735 464.897 547.868 433.032 524.509 400.222C522.518 397.433 520.92 392.823 520.466 389.458C519.683 383.583 520.716 377.61 523.425 372.339C526.108 367.023 542.067 346.662 546.455 340.589C562.593 318.427 578.613 296.143 595.007 274.171C596.71 271.889 602.246 265.512 604.436 263.961C610.51 259.658 627.272 260.609 634.358 260.614C665.129 260.636 695.55 260.616 726.279 260.735C734.232 260.777 740.567 262.667 745.502 269.108C767.634 297.999 790.435 327.403 811.459 357.051L1082.05 357.002C1098.87 337.079 1115.06 313.071 1131.76 293.167L936.678 293.087C920.289 292.964 903.9 292.959 887.511 293.072C882.454 293.121 875.654 292.98 870.852 293.226C851.527 294.212 845.648 292.086 834.216 276.047C825.05 263.188 814.119 249.576 804.562 236.849C794.382 223.384 787.888 210.874 768.624 211.866C725.115 211.958 681.618 211.979 638.119 211.924L594.974 211.88C584.818 211.873 565.455 210.089 558.182 218.251C550.944 226.374 543.99 236.5 537.422 245.326L502.669 291.252L461.12 346.003C451.551 358.776 431.706 378.745 442.599 395.8C451.181 409.237 462.292 422.641 471.971 435.447L526.121 507.285C533.263 516.701 540.34 526.165 547.352 535.677C566.939 562.244 565.822 560.013 598.643 560.026L642.53 560.017L723.875 560.051C738.197 560.053 752.787 560.185 767.041 559.945C776.503 559.785 783.302 558.661 789.624 551.443C794.811 545.519 799.305 539.425 804.061 533.147L827.134 502.576C835.778 491.094 842.417 477.951 858.257 477.927C874.394 477.902 890.53 477.871 906.67 477.902L993.657 477.933L1108.68 477.923C1128.42 477.924 1149.71 477.521 1169.34 478C1190.69 452.648 1211.14 423.698 1231.91 397.61C1240.96 386.236 1250.45 372.618 1260.53 362.141C1263.78 358.771 1267.05 357.454 1271.64 357.221C1280.18 356.788 1289.04 356.934 1297.63 356.925L1344 356.913L1344 412.46L1284.86 412.688C1263.03 439.34 1242.02 468.88 1220.59 495.951C1193.73 529.884 1203.74 527.715 1159.47 527.747L1109.59 527.755L949.767 527.71L908.912 527.711C892.22 527.715 874.361 524.849 863.28 539.812C846.231 562.833 827.79 585.513 811.58 609.121C809.71 610.311 807.703 611.527 805.924 612.83C785.001 613.333 763.028 613.064 742.022 613.093L620.367 613.009L570.57 613.086C563.83 613.1 548.473 613.497 542.31 612.335C539.62 610.438 538.696 609.921 535.705 608.537C530.335 603.157 521.625 590.288 516.742 583.738L479.53 533.828L416.622 448.982C405.447 433.996 394.01 419.098 383.016 403.993C380.456 400.091 377.43 395.87 376.172 391.345C372.034 376.462 379.79 366.865 388.141 355.879C395.184 346.614 402.212 337.719 409.179 328.605L495.839 214.058C503.186 204.371 510.603 194.738 518.09 185.16C521.523 180.723 528.083 172.798 530.563 167.999C532.757 166.473 537.18 162.453 539.384 160.565Z"/><path fill="#0A0A0A" d="M615.769 264.197C640.927 263.77 666.705 264.482 691.962 264.194C704.264 264.605 721.172 263.365 733.083 264.754C742.264 265.825 761.374 295.084 766.668 302.218C780.327 320.393 793.84 338.677 807.207 357.068L709.629 357.125C696.414 357.122 682.467 357.229 669.215 357.224C634.606 357.211 632.598 406.578 663.799 412.102C674.436 413.985 695.258 412.672 707.148 412.676L807.985 412.799L787.703 438.875L705.141 438.849C696.519 438.828 666.151 438.217 659.732 439.843C656.088 440.766 652.744 442.611 650.021 445.201C645.888 449.118 643.335 454.229 643.289 459.973C643.281 465.872 645.605 471.535 649.756 475.726C657.078 483.131 665.335 481.796 674.889 481.957C680.5 482.052 686.157 481.939 691.772 481.93L754.915 481.815C752.902 484.767 750.816 487.67 748.66 490.519C736.429 506.755 729.623 503.642 711.025 503.646L676.888 503.63L638.143 503.585C631.497 503.584 608.541 504.496 604.615 500.441C591.025 486.403 578.271 467.038 566.483 451.38C557.66 439.801 548.9 428.175 540.203 416.502C530.486 403.4 516.012 388.786 527.27 372.523C543.421 349.192 561.119 326.664 577.659 303.536C586.27 291.495 595.075 277.505 605.991 267.587C608.681 265.143 612.294 264.467 615.769 264.197Z"/><path fill="#0A0A0A" d="M0 528.539L186.155 528.691C216.776 528.67 249.473 528.011 279.901 528.614C290.155 541.712 299.999 555.702 310.076 569.028L380.373 662.064C345.365 662.605 309.612 661.856 274.507 661.936L0 662.01L0 612.713L0 564.38L0 528.539Z"/><path fill="#F7A630" d="M0 564.38L197.973 564.493L255.805 564.376C275.553 564.296 303.114 558.999 305.455 588.902C306.209 598.53 296.31 610.812 286.623 612.13C276.328 613.254 264.09 612.862 253.586 612.864L196.222 612.809L0 612.713L0 564.38Z"/><path fill="#68EBCD" d="M372.293 200.626C379.986 214.326 394.761 231.155 410.573 235.064C382.176 274.064 349.897 314.861 320.385 353.326L295.367 386.073C272.175 416.608 276.965 412.735 238.318 412.699L184.458 412.644L0 412.656L0 356.937L252.055 356.914C256.863 351.591 262.84 343.409 267.319 337.606L295.114 301.307L372.293 200.626Z"/><path fill="#F7A630" d="M825.934 677.363L880.208 606.234C887.115 597.212 906.333 569.316 915.508 565.789L915.992 565.606C922.753 563.003 1005.47 564.372 1018.91 564.348L1050.44 564.289C1061.64 564.271 1073.71 562.484 1082.04 571.117C1086.03 575.251 1090.01 582.547 1089.5 588.431C1087.52 611.379 1070.53 613.913 1051.41 612.755C1043.58 612.398 1034.86 612.75 1027.77 612.742L940.801 612.61C928.109 628.988 915.588 645.497 903.238 662.134L1344 662.183L1344 665.388L900.612 665.367C897.537 669.134 894.363 673.415 891.363 677.292L825.934 677.363Z"/><path fill="#0A0A0A" d="M587.407 101.236C596.027 100.489 610.895 100.875 620.006 100.833L683.584 100.73L731.686 100.731C740 100.73 751.666 100.336 759.632 101.213C763.501 104.394 772.724 116.765 776.296 121.311C786.061 133.899 795.99 146.357 806.081 158.684C758.198 157.491 705.824 158.671 657.583 158.657L585.656 158.589C575.976 158.579 546.765 157.413 539.384 160.565C548.264 148.697 558.814 136.492 567.948 124.647C572.084 119.284 582.933 105.255 587.407 101.236Z"/><path fill="#F7A630" d="M443.053 662.151C419.229 631.849 394.571 597.094 371.314 565.954L346.699 533.087C340.9 525.377 334.881 518.164 330.113 509.627C316.067 484.47 347.955 458.048 369.019 478.997C376.112 486.052 383.347 496.853 389.585 505.089C401.481 520.662 413.286 536.304 425 552.014C455.726 593.171 487.827 634.401 518.038 675.725L518.983 677.018L453.866 677.218C451.066 673.426 447.972 669.036 445.051 665.406C444.304 663.81 444.208 663.442 443.053 662.151Z"/><path fill="#0A0A0A" d="M542.31 612.335C548.473 613.497 563.83 613.1 570.57 613.086L620.367 613.009L742.022 613.093C763.028 613.064 785.001 613.333 805.924 612.83C789.947 630.771 776.032 651.163 759.923 668.881C757.251 671.821 725.742 670.843 719.766 670.845L658.52 670.849L615.501 670.836C611.142 670.834 588.722 671.22 587.383 669.558C573.806 652.715 555.199 628.622 542.31 612.335Z"/><path fill="#F7A630" d="M828.921 95.1994L892.728 95.1883C897.664 102.057 905.569 112.308 910.873 118.757C912.136 120.1 912.778 120.632 913.587 122.3C925.093 137.779 936.762 153.136 948.591 168.369L1007.17 168.305C1015.14 168.289 1032.58 167.793 1039.44 169.163C1043.52 169.958 1047.28 171.924 1050.27 174.82C1055.04 179.493 1057.75 185.879 1057.79 192.558C1057.89 202.804 1050.32 214.667 1039.69 215.957C1026.98 217.499 1012.59 216.768 999.603 216.758L921.69 216.785C908.927 203.095 887.292 172.715 875.358 157.022C862.335 139.896 840.08 112.749 828.921 95.1994Z"/><path fill="#F7A630" d="M0 168.532L118.49 168.528L150.704 168.4C156.685 168.37 166.374 167.786 172.079 168.96C191.342 172.924 197.406 197.524 182.772 210.778C174.113 218.619 161.45 216.665 150.266 216.665L116.875 216.656L0 216.645L0 168.532Z"/><path fill="#F7A630" d="M295.087 118.607C304.297 118.624 360.888 118.016 364.76 119.85C365.109 120.831 365.588 121.547 364.892 122.533C355.235 136.225 342.608 152.082 332.597 165.205L227.998 301.997C205.45 301.741 182.901 301.671 160.352 301.786C153.394 311.038 146.373 320.242 139.289 329.398C136.852 332.538 131.917 340.237 128.338 341.336L127.105 341.235C128.066 337.439 154.579 304.327 158.887 298.534C181.451 298.409 204.015 298.437 226.578 298.617L330.346 163.119C340.859 149.547 351.012 135.315 361.804 122.02L296.628 122.072C266.955 159.932 237.966 199.181 208.626 237.376C199.123 249.748 193.269 261.471 182.559 274.358L0 274.541L0 250.141C64.2178 250.061 130.693 249.268 194.773 250.255C228.059 206.504 262.251 162.625 295.087 118.607Z"/><defs><linearGradient id="gradient_0" gradientUnits="userSpaceOnUse" x1="490.83844" y1="81.609909" x2="419.63168" y2="185.4527"><stop offset="0" stop-color="#FFA127"/><stop offset="1" stop-color="#E9B744"/></linearGradient></defs><path fill="url(#gradient_0)" d="M451.826 95.467C472.613 94.8842 495.075 95.2616 515.972 95.4013C498.063 120.355 479.798 144.072 461.226 168.475C454.253 177.637 443.532 190.667 437.338 199.824C423.968 187.833 408.532 178.273 403.805 159.476C418.292 140.074 438.834 114.912 451.826 95.467Z"/><path fill="#F7A630" d="M0 525.539L181.76 525.429C214.864 525.442 248.595 525.1 281.645 525.486L352.938 620.452C361.383 631.545 376.39 652.652 384.675 661.906C399.778 662.091 428.658 663.19 443.053 662.151C444.208 663.442 444.304 663.81 445.051 665.406L0 665.375L0 662.01L274.507 661.936C309.612 661.856 345.365 662.605 380.373 662.064L310.076 569.028C299.999 555.702 290.155 541.712 279.901 528.614C249.473 528.011 216.776 528.67 186.155 528.691L0 528.539L0 525.539Z"/><path fill="#00FF9C" d="M403.805 159.476C408.532 178.273 423.968 187.833 437.338 199.824C429.016 210.953 418.404 223.988 410.573 235.064C394.761 231.155 379.986 214.326 372.293 200.626L403.805 159.476Z"/><path fill="#F7A630" d="M910.873 118.757L1344 118.831L1344 122.139L1059.15 122.081L1106.9 184.473C1110.97 189.753 1134.85 219.235 1135.48 223.343C1131.25 223.917 1104.8 186.964 1100.52 181.391L1069.96 141.642C1065.52 135.859 1058.99 127.871 1054.98 122.07L957.438 122.073C950.051 122.063 918.703 121.524 913.587 122.3C912.778 120.632 912.136 120.1 910.873 118.757Z"/><path fill="#F7A630" d="M530.563 167.999C533.793 159.68 571.76 115.348 579.827 104.578C583.861 99.1917 586.313 97.6404 592.593 97.3954C601.332 97.0546 610.04 97.1221 618.81 97.1082L665.765 97.0844L722.428 97.0949C727.61 97.1005 760.453 96.2531 762.545 99.332C773.985 116.17 805.53 147.366 813.619 164.102C811.087 162.323 808.574 160.517 806.081 158.684C795.99 146.357 786.061 133.899 776.296 121.311C772.724 116.765 763.501 104.394 759.632 101.213C751.666 100.336 740 100.73 731.686 100.731L683.584 100.73L620.006 100.833C610.895 100.875 596.027 100.489 587.407 101.236C582.933 105.255 572.084 119.284 567.948 124.647C558.814 136.492 548.264 148.697 539.384 160.565C537.18 162.453 532.757 166.473 530.563 167.999Z"/><path fill="#F7A630" d="M535.705 608.537C538.696 609.921 539.62 610.438 542.31 612.335C555.199 628.622 573.806 652.715 587.383 669.558C588.722 671.22 611.142 670.834 615.501 670.836L658.52 670.849L719.766 670.845C725.742 670.843 757.251 671.821 759.923 668.881C776.032 651.163 789.947 630.771 805.924 612.83C807.703 611.527 809.71 610.311 811.58 609.121C806.601 619.327 771.609 659.115 763.431 670.609C762.457 671.977 759.595 673.604 758.033 674.426L640.811 674.461C625.419 674.465 604.714 675.095 588.919 673.624C586.292 673.379 584.056 671.688 582.472 669.491C568.002 649.418 549.459 628.823 535.705 608.537Z"/><path fill="#F7A630" d="M1306.48 467.606C1317.11 468.4 1332.98 467.971 1344 468.001L1344 471.36L1307.45 471.338L1239.47 559.047C1230.46 570.783 1221.36 582.442 1212.16 594.023C1209.18 597.821 1199.64 612.834 1194.86 611.622C1195.87 609.109 1211.93 589.457 1214.74 585.792L1272.78 511.028C1283.86 496.738 1295.02 481.482 1306.48 467.606Z"/><path fill="#F7A630" d="M1344 611.602C1338.18 608.858 1333.83 605.294 1331.04 599.321C1328.32 593.381 1328.06 586.61 1330.31 580.479C1332.98 573.282 1337.35 569.921 1344 566.884L1344 611.602Z"/><path fill="#68EBCD" d="M1344 275.799C1335.09 265.12 1265.67 178.02 1262.04 169.047L1262.94 168.298C1268.82 171.853 1334.59 258.633 1344 270.491L1344 275.799Z"/><path fill="#F7A630" d="M1344 212.059C1340.65 209.987 1337.25 206.953 1335.05 203.665C1331.28 198.016 1329.95 191.091 1331.35 184.449C1333.04 176.409 1337.49 172.276 1344 168.11L1344 212.059Z"/><path fill="#F7A630" d="M1344 522.6L1344 525.766L1335.01 525.851C1319.62 546.222 1303.84 566.294 1287.67 586.055C1283.21 591.612 1269.64 610.819 1264.43 613.135L1264.12 612.199C1265.22 607.897 1281.04 589.567 1284.71 584.946C1301.09 564.295 1317.36 543.559 1333.53 522.739L1344 522.6Z"/><path fill="#68EBCD" d="M6.96296 478.391C14.5115 469.084 28.2012 452.058 36.5804 442.092C37.3024 441.983 37.9265 441.89 38.4528 441.811L39.3332 442.222C38.6981 445.159 12.7618 476.264 8.80276 481.194L0 481.229L0 478.264L6.96296 478.391Z"/><path fill="#68EBCD" d="M1282.88 281.18C1278.17 276.051 1269.85 264.81 1265.25 258.907L1232.27 216.48L1209.9 187.859C1206.47 183.486 1198.72 174.098 1196.59 169.639L1197.19 168.691C1198.53 168.725 1199.27 168.775 1200.32 170.159C1205.2 176.615 1210.44 183.288 1215.41 189.618L1259.66 246.369C1265.95 254.529 1278.91 272.298 1285.56 278.821L1285.95 279.201C1286.42 281.564 1286.78 282.135 1285.08 284.43C1278.15 293.772 1270.22 302.918 1262.83 311.905L1226.45 356.514C1218.1 366.59 1150.32 451.823 1143.85 455.636L1142.58 455.69C1143.27 449.023 1255.24 319.092 1266.5 302.325C1269.48 297.885 1280.59 286.771 1282.88 281.18Z"/><path fill="#68EBCD" d="M386.987 319.976C389.159 320.24 388.883 319.843 389.998 321.081C389.217 324.085 272.446 464.672 259.317 480.705C246.3 481.718 226.614 481.115 213.001 481.106L129.117 481.026L126.89 480.967L126.137 480.154L126.606 478.869C130.255 476.095 243.638 478.872 258.075 477.479C299.366 425.028 344.733 372.12 386.987 319.976Z"/><path fill="#68EBCD" d="M1224.8 253.248C1228.53 253.692 1243.98 275.685 1248.24 280.69C1244.64 286.046 1238.01 293.585 1233.78 298.676C1225.28 308.835 1216.85 319.06 1208.5 329.351L1103.67 456.777L1101.7 455.944C1101.69 454.449 1102.79 452.715 1103.72 451.599C1118.62 433.688 1133.53 415.53 1148.26 397.506L1244.01 281.12C1238.06 272.644 1230.08 263.695 1224.57 254.832C1224.21 254.256 1224.46 254.22 1224.8 253.248Z"/><path fill="#68EBCD" d="M358.473 401.493C360.371 401.707 360.471 401.412 361.771 402.382C359.966 404.979 357.711 407.598 355.659 410.016C335.811 433.406 317.006 457.729 297.336 481.245C296.087 481.044 295.645 480.855 294.493 480.432C294.564 478.633 351.59 410.065 358.473 401.493Z"/><path fill="#68EBCD" d="M1140.05 167.676C1142.93 168.644 1185.61 223.139 1186.73 227.058L1185.93 228.509C1180.92 226.434 1151.76 184.661 1145.49 178.327C1144.3 177.124 1139.69 170.638 1138.99 169.114L1140.05 167.676Z"/><path fill="#F7A630" d="M1172.19 565.057L1174.51 565.593L1174.96 566.397C1166.15 578.957 1148.68 600.734 1138.89 612.655C1137.48 612.421 1137.35 612.498 1136.14 611.668C1136.91 608.944 1167.72 570.799 1172.19 565.057Z"/><path fill="#68EBCD" d="M107.276 295.056C109.227 295.369 108.864 295.025 110.169 296.134C108.936 298.485 101.608 307.478 99.6328 309.945C91.1828 320.524 82.5888 330.987 73.8531 341.331C72.4626 341.081 71.9647 341.086 70.7451 340.317C72.3244 337.885 79.919 329.076 82.1004 326.392C90.572 316.011 98.9641 305.566 107.276 295.056Z"/><path fill="#68EBCD" d="M50.0977 295.226C52.1199 295.626 52.3557 295.286 53.3396 296.5L17.0118 341.064L14.1399 341.043L13.7288 340.358C23.6878 326.073 40.4767 309.457 50.0977 295.226Z"/><path fill="#68EBCD" d="M75.9523 441.473C76.9779 441.601 77.9573 441.882 78.9607 442.135C78.6429 444.688 49.5579 479.113 46.1026 483.293C44.5155 483.298 44.3819 483.359 43.0106 482.655C45.0537 477.824 70.7941 448.25 75.9523 441.473Z"/><path fill="#68EBCD" d="M114.328 441.485C115.786 441.718 116.11 441.655 117.134 442.736C114.151 447.468 106.061 456.539 102.245 461.225C96.5732 468.191 90.0883 476.864 84.1211 483.371C81.9865 483.372 82.1275 483.744 80.9464 482.684C81.9906 480.873 83.402 479.313 84.6947 477.678C94.3629 465.444 104.687 453.74 114.328 441.485Z"/><path fill="#68EBCD" d="M961.436 302.734C962.3 302.906 963.394 303.27 964.262 303.525C963.748 305.729 936.948 337.709 933.45 341.589C932.148 341.642 932.017 341.496 930.82 341.043C931.67 338.062 957.714 307.257 961.436 302.734Z"/><path fill="#68EBCD" d="M1017.29 303.052C1018.08 303.16 1020.07 303.083 1020.38 303.964C1019.9 305.442 992.129 338.653 989.299 341.462C988.713 341.4 987.061 341.304 986.669 340.932C986.983 339.575 1014.53 306.291 1017.29 303.052Z"/><path fill="#68EBCD" d="M908.106 303.213C908.715 303.238 910.867 303.129 911.201 303.648C910.828 305.477 883.998 337.683 880.977 340.938C880.162 341.157 878.547 341.681 877.894 340.949C877.803 339.67 905.022 307.169 908.106 303.213Z"/></svg>