<svg xmlns="http://www.w3.org/2000/svg" width="26" height="26" fill="none" viewBox="0 0 26 26"><path fill="url(#a)" d="M6 14.028a5.972 5.972 0 1 1 0 11.944 5.972 5.972 0 0 1 0-11.944m14 0a5.972 5.972 0 1 1 0 11.944 5.972 5.972 0 0 1 0-11.944M6 15.972a4.028 4.028 0 1 0 0 8.056 4.028 4.028 0 0 0 0-8.056m14 0a4.028 4.028 0 1 0 0 8.056 4.028 4.028 0 0 0 0-8.056M6 .028a5.972 5.972 0 1 1 0 11.944A5.972 5.972 0 0 1 6 .028m14 0c.537 0 .972.435.972.972v4.028H25a.972.972 0 0 1 .1 1.939l-.1.005h-4.028V11a.972.972 0 0 1-1.944 0V6.972H15a.972.972 0 0 1 0-1.944h4.028V1c0-.537.436-.972.972-.972M6 1.972a4.028 4.028 0 1 0 0 8.056 4.028 4.028 0 0 0 0-8.056"/><defs><linearGradient id="a" x1="-7.384" x2="27.618" y1="5.29" y2="22.921" gradientUnits="userSpaceOnUse"><stop stop-color="#fff"/><stop offset=".348" stop-color="#00f0ff"/><stop offset=".893" stop-color="#d7ee4b"/><stop offset=".997" stop-color="#fbbd15"/><stop offset="1" stop-color="#fff"/></linearGradient></defs></svg>