<svg xmlns="http://www.w3.org/2000/svg" width="103" height="103" fill="none" viewBox="0 0 103 103"><g clip-path="url(#a)"><rect width="91.189" height="91.189" x="19.097" y="-4.503" fill="url(#b)" stroke="#fff" stroke-width=".811" opacity=".15" rx="19.078" transform="rotate(15 19.097 -4.503)"/><g filter="url(#c)"><g clip-path="url(#d)"><rect width="71" height="71" x="25.77" y="7.393" fill="#ee412a" rx="16.032" transform="rotate(15 25.77 7.393)"/><rect width="71" height="71" x="25.77" y="7.393" fill="url(#e)" rx="16.032" transform="rotate(15 25.77 7.393)"/><rect width="71" height="71" x="25.77" y="7.393" fill="url(#f)" fill-opacity=".2" rx="16.032" transform="rotate(15 25.77 7.393)"/><rect width="71" height="71" x="25.77" y="7.393" fill="url(#g)" fill-opacity=".1" rx="16.032" transform="rotate(15 25.77 7.393)"/><path fill="url(#h)" d="M30.457 48.72a3.5 3.5 0 0 1 4.287-2.474l36.705 9.835a3.5 3.5 0 1 1-1.812 6.761l-36.705-9.835a3.5 3.5 0 0 1-2.475-4.286" opacity=".15"/><path fill="url(#i)" d="M34.21 34.715a3.5 3.5 0 0 1 4.286-2.475l36.705 9.835a3.5 3.5 0 0 1-1.812 6.761l-36.705-9.835a3.5 3.5 0 0 1-2.475-4.286" opacity=".15"/><path fill="url(#j)" d="M26.704 62.726a3.5 3.5 0 0 1 4.286-2.474l20.285 5.435a3.5 3.5 0 1 1-1.812 6.761l-20.285-5.435a3.5 3.5 0 0 1-2.475-4.287" opacity=".15"/><path fill="url(#k)" d="M28.303 44.307a3.5 3.5 0 0 1 4.287-2.475l36.705 9.835a3.5 3.5 0 1 1-1.812 6.761l-36.705-9.835a3.5 3.5 0 0 1-2.475-4.287"/><path fill="url(#l)" d="M32.055 30.3a3.5 3.5 0 0 1 4.287-2.474l36.705 9.835a3.5 3.5 0 0 1-1.812 6.762L34.53 34.586a3.5 3.5 0 0 1-2.475-4.286"/><path fill="url(#m)" d="M24.55 58.312a3.5 3.5 0 0 1 4.286-2.474l20.284 5.435a3.5 3.5 0 0 1-1.812 6.761L27.025 62.6a3.5 3.5 0 0 1-2.475-4.287"/><g filter="url(#n)" opacity=".5"><rect width="61.839" height="61.839" x="72.734" y="88.74" fill="url(#o)" rx="9.161" transform="rotate(-165 72.734 88.74)"/></g><rect width="63.556" height="63.556" x="28.402" y="11.95" stroke="#fff" stroke-width=".573" opacity=".1" rx="13.714" transform="rotate(15 28.402 11.95)"/></g><rect width="69.855" height="69.855" x="26.174" y="8.094" stroke="#fff" stroke-opacity=".15" stroke-width="1.145" rx="15.46" transform="rotate(15 26.174 8.094)"/></g></g><defs><linearGradient id="b" x1="21.366" x2="53.736" y1="-8.407" y2="34.185" gradientUnits="userSpaceOnUse"><stop stop-color="#fff"/><stop offset="1" stop-color="#fff" stop-opacity="0"/></linearGradient><linearGradient id="e" x1="25.77" x2="118.909" y1="94.425" y2="43.372" gradientUnits="userSpaceOnUse"><stop stop-color="#3a1c71"/><stop offset=".5" stop-color="#d76d77"/><stop offset="1" stop-color="#ffca7b"/></linearGradient><linearGradient id="f" x1="54.408" x2="119.666" y1="95.336" y2="32.17" gradientUnits="userSpaceOnUse"><stop stop-color="#fff" stop-opacity="0"/><stop offset=".5" stop-opacity=".8"/><stop offset="1" stop-color="#fff" stop-opacity="0"/></linearGradient><linearGradient id="g" x1="61.27" x2="61.27" y1="7.393" y2="78.393" gradientUnits="userSpaceOnUse"><stop stop-color="#fff"/><stop offset="1" stop-color="#93959f"/></linearGradient><linearGradient id="h" x1="53.097" x2="51.285" y1="51.163" y2="57.925" gradientUnits="userSpaceOnUse"><stop stop-color="#fff"/><stop offset="1" stop-color="#cfc0b6"/></linearGradient><linearGradient id="i" x1="56.849" x2="55.037" y1="37.157" y2="43.919" gradientUnits="userSpaceOnUse"><stop stop-color="#fff"/><stop offset="1" stop-color="#cfc0b6"/></linearGradient><linearGradient id="j" x1="41.132" x2="39.321" y1="62.969" y2="69.731" gradientUnits="userSpaceOnUse"><stop stop-color="#fff"/><stop offset="1" stop-color="#cfc0b6"/></linearGradient><linearGradient id="k" x1="50.942" x2="49.131" y1="46.749" y2="53.511" gradientUnits="userSpaceOnUse"><stop stop-color="#fff"/><stop offset="1" stop-color="#cfc0b6"/></linearGradient><linearGradient id="l" x1="54.694" x2="52.883" y1="32.743" y2="39.505" gradientUnits="userSpaceOnUse"><stop stop-color="#fff"/><stop offset="1" stop-color="#cfc0b6"/></linearGradient><linearGradient id="m" x1="38.978" x2="37.166" y1="58.555" y2="65.317" gradientUnits="userSpaceOnUse"><stop stop-color="#fff"/><stop offset="1" stop-color="#cfc0b6"/></linearGradient><linearGradient id="o" x1="74.452" x2="88.767" y1="86.45" y2="100.764" gradientUnits="userSpaceOnUse"><stop stop-color="#fff"/><stop offset="1" stop-color="#fff" stop-opacity="0"/></linearGradient><clipPath id="a"><path fill="#fff" d="M0 0h103v103H0z"/></clipPath><clipPath id="d"><rect width="71" height="71" x="25.77" y="7.393" fill="#fff" rx="16.032" transform="rotate(15 25.77 7.393)"/></clipPath><filter id="c" width="155.667" height="155.667" x="-26.962" y="-17.801" color-interpolation-filters="sRGB" filterUnits="userSpaceOnUse"><feFlood flood-opacity="0" result="BackgroundImageFix"/><feColorMatrix in="SourceAlpha" result="hardAlpha" values="0 0 0 0 0 0 0 0 0 0 0 0 0 0 0 0 0 0 127 0"/><feOffset dy="9.161"/><feGaussianBlur stdDeviation="17.177"/><feComposite in2="hardAlpha" operator="out"/><feColorMatrix values="0 0 0 0 0 0 0 0 0 0 0 0 0 0 0 0 0 0 0.6 0"/><feBlend in2="BackgroundImageFix" result="effect1_dropShadow_220_89"/><feBlend in="SourceGraphic" in2="effect1_dropShadow_220_89" result="shape"/><feColorMatrix in="SourceAlpha" result="hardAlpha" values="0 0 0 0 0 0 0 0 0 0 0 0 0 0 0 0 0 0 127 0"/><feOffset dy="-.71"/><feGaussianBlur stdDeviation="6.127"/><feComposite in2="hardAlpha" k2="-1" k3="1" operator="arithmetic"/><feColorMatrix values="0 0 0 0 0.133333 0 0 0 0 0.133333 0 0 0 0 0.133333 0 0 0 0.5 0"/><feBlend in2="shape" result="effect2_innerShadow_220_89"/></filter><filter id="n" width="85.367" height="85.365" x="8.188" y="8.19" color-interpolation-filters="sRGB" filterUnits="userSpaceOnUse"><feFlood flood-opacity="0" result="BackgroundImageFix"/><feBlend in="SourceGraphic" in2="BackgroundImageFix" result="shape"/><feGaussianBlur result="effect1_foregroundBlur_220_89" stdDeviation="3.435"/></filter></defs></svg>