<svg xmlns="http://www.w3.org/2000/svg" width="26" height="26" fill="none" viewBox="0 0 26 26"><path fill="url(#a)" d="M5.667 14.695c.916 0 1.676 0 2.29.062.628.064 1.208.203 1.73.552a3.6 3.6 0 0 1 1.004 1.004l.121.198c.262.47.375.983.431 1.534.062.613.062 1.373.062 2.289s0 1.676-.062 2.289c-.064.629-.203 1.21-.552 1.732a3.6 3.6 0 0 1-1.004 1.003c-.522.35-1.102.488-1.73.552-.614.063-1.374.062-2.29.062s-1.676 0-2.29-.062c-.628-.064-1.209-.203-1.731-.552a3.6 3.6 0 0 1-1.004-1.003c-.35-.523-.488-1.103-.552-1.732-.062-.613-.062-1.373-.062-2.289s0-1.676.062-2.29c.064-.628.203-1.21.552-1.732l.103-.146a3.6 3.6 0 0 1 .9-.857c.523-.35 1.104-.488 1.733-.552.613-.062 1.373-.062 2.289-.062m14.667 0c.916 0 1.676 0 2.289.062.629.064 1.21.203 1.732.552a3.6 3.6 0 0 1 1.003 1.004l.122.198c.26.47.374.983.43 1.534.062.613.062 1.373.062 2.289s0 1.676-.062 2.289c-.064.629-.203 1.21-.552 1.732a3.6 3.6 0 0 1-1.003 1.003c-.523.35-1.103.488-1.732.552-.613.063-1.373.062-2.289.062s-1.676 0-2.29-.062c-.628-.064-1.21-.203-1.732-.552a3.6 3.6 0 0 1-1.003-1.003c-.35-.523-.488-1.103-.552-1.732-.062-.613-.062-1.373-.062-2.289s0-1.676.062-2.29c.064-.628.203-1.209.552-1.732l.103-.146c.249-.335.553-.625.9-.857.523-.35 1.104-.488 1.733-.552.613-.062 1.373-.062 2.289-.062M5.667 16.64c-.957 0-1.601 0-2.093.05-.475.049-.7.134-.85.235a1.7 1.7 0 0 0-.467.468c-.1.15-.186.374-.235.85-.05.49-.05 1.136-.05 2.092s0 1.6.05 2.092c.049.475.135.7.235.85l.1.133q.159.195.368.334l.13.072c.148.07.363.126.72.162.49.05 1.135.052 2.092.052.956 0 1.6-.002 2.092-.052.475-.048.7-.134.85-.234l.133-.1q.194-.159.334-.368l.072-.128c.07-.149.126-.365.163-.721.05-.492.051-1.136.051-2.092s-.001-1.601-.051-2.093c-.037-.356-.094-.571-.163-.72l-.072-.13a1.7 1.7 0 0 0-.468-.467c-.15-.1-.374-.186-.85-.235-.49-.05-1.135-.05-2.091-.05m14.667 0c-.956 0-1.601 0-2.093.05-.475.049-.7.135-.85.235a1.7 1.7 0 0 0-.467.468c-.1.15-.186.374-.235.85-.05.49-.05 1.136-.05 2.092s0 1.6.05 2.092c.049.475.135.7.235.85l.1.133q.16.195.368.334l.128.072c.15.07.365.126.721.162.492.05 1.137.052 2.093.052s1.6-.002 2.092-.052c.475-.048.7-.134.85-.234l.133-.1q.195-.159.334-.368l.072-.128c.07-.149.126-.365.162-.721.05-.492.052-1.136.052-2.092s-.002-1.601-.052-2.093c-.036-.356-.093-.571-.162-.72l-.072-.13a1.7 1.7 0 0 0-.334-.368l-.134-.1c-.15-.1-.374-.185-.85-.233-.49-.05-1.135-.051-2.091-.051M5.667.029c.916 0 1.676-.001 2.29.06.628.065 1.208.204 1.73.553a3.6 3.6 0 0 1 1.004 1.004c.35.522.488 1.103.552 1.732.063.613.062 1.373.062 2.289s0 1.676-.062 2.29c-.064.628-.203 1.208-.552 1.73a3.6 3.6 0 0 1-1.004 1.004c-.522.35-1.102.488-1.73.552-.614.063-1.374.062-2.29.062s-1.676 0-2.29-.062c-.628-.064-1.209-.203-1.731-.552A3.6 3.6 0 0 1 .642 9.687C.292 9.166.154 8.586.09 7.958.028 7.342.028 6.582.028 5.666s0-1.676.062-2.29c.064-.628.203-1.209.552-1.731A3.6 3.6 0 0 1 1.646.642C2.168.292 2.749.154 3.378.09 3.99.028 4.75.028 5.667.028m14.667 0c.916 0 1.676-.001 2.289.06.629.065 1.21.204 1.732.553.397.265.738.606 1.003 1.004.35.522.488 1.103.552 1.732.063.613.062 1.373.062 2.289s0 1.676-.062 2.29c-.064.628-.203 1.208-.552 1.73a3.6 3.6 0 0 1-1.003 1.004c-.523.35-1.103.488-1.732.552-.613.063-1.373.062-2.289.062s-1.676 0-2.29-.062c-.628-.064-1.209-.203-1.732-.552a3.6 3.6 0 0 1-1.003-1.003c-.35-.523-.488-1.103-.552-1.732-.062-.613-.062-1.373-.062-2.289s0-1.676.062-2.29c.064-.628.203-1.209.552-1.731l.103-.147c.249-.335.553-.625.9-.857.523-.35 1.104-.488 1.733-.552.613-.062 1.373-.062 2.289-.062M5.667 1.971c-.957 0-1.601 0-2.093.05-.475.049-.7.135-.85.235a1.7 1.7 0 0 0-.467.468c-.1.15-.186.374-.235.85-.05.49-.05 1.135-.05 2.092 0 .956 0 1.6.05 2.092.049.475.135.7.235.85.123.184.283.344.468.467.15.1.374.186.85.235.49.05 1.135.051 2.092.051.956 0 1.6-.001 2.092-.051.475-.049.7-.135.85-.235.185-.124.344-.283.467-.468.1-.15.186-.374.235-.85.05-.49.051-1.135.051-2.091s-.001-1.601-.051-2.093c-.049-.475-.135-.7-.235-.85a1.7 1.7 0 0 0-.468-.467c-.15-.1-.374-.186-.85-.235-.49-.05-1.135-.05-2.091-.05m14.667 0c-.956 0-1.601 0-2.093.05-.475.049-.7.135-.85.235a1.7 1.7 0 0 0-.467.468c-.1.15-.186.374-.235.85-.05.49-.05 1.135-.05 2.092 0 .956 0 1.6.05 2.092.049.475.135.7.235.85l.1.133a1.7 1.7 0 0 0 .368.334c.15.1.374.186.85.235.49.05 1.136.051 2.092.051s1.6-.001 2.092-.051c.475-.049.7-.135.85-.235.184-.123.344-.283.467-.468l.072-.129c.07-.148.126-.364.162-.72.05-.492.052-1.136.052-2.092s-.001-1.601-.052-2.093c-.036-.356-.093-.571-.162-.72l-.072-.13a1.7 1.7 0 0 0-.468-.467c-.15-.1-.374-.186-.85-.235-.49-.05-1.135-.05-2.091-.05"/><defs><linearGradient id="a" x1=".028" x2="25.971" y1="25.971" y2=".028" gradientUnits="userSpaceOnUse"><stop stop-color="#ff7a00"/><stop offset="1" stop-color="#ffd439"/></linearGradient></defs></svg>