<svg xmlns="http://www.w3.org/2000/svg" width="127" height="32" fill="none" viewBox="0 0 127 32"><path fill="url(#a)" d="M0 14.759c0-4.308 0-6.462.644-8.181A10.13 10.13 0 0 1 6.578.644C8.298 0 10.45 0 14.759 0c1.773 0 2.66 0 3.507.145 1.347.23 2.634.73 3.783 1.471.723.466 1.376 1.065 2.683 2.263L26.5 5.5l.62.564c1.534 1.394 2.3 2.091 2.894 2.893a10.1 10.1 0 0 1 1.792 4.05c.194.979.194 2.015.194 4.087 0 4.446 0 6.669-.685 8.436a10.13 10.13 0 0 1-5.785 5.785C23.763 32 21.54 32 17.094 32H16c-5.474 0-8.211 0-10.317-1.03a10.13 10.13 0 0 1-4.653-4.653C0 24.211 0 21.474 0 16z"/><path fill="url(#b)" d="M0 14.759c0-4.308 0-6.462.644-8.181A10.13 10.13 0 0 1 6.578.644C8.298 0 10.45 0 14.759 0c1.773 0 2.66 0 3.507.145 1.347.23 2.634.73 3.783 1.471.723.466 1.376 1.065 2.683 2.263L26.5 5.5l.62.564c1.534 1.394 2.3 2.091 2.894 2.893a10.1 10.1 0 0 1 1.792 4.05c.194.979.194 2.015.194 4.087 0 4.446 0 6.669-.685 8.436a10.13 10.13 0 0 1-5.785 5.785C23.763 32 21.54 32 17.094 32H16c-5.474 0-8.211 0-10.317-1.03a10.13 10.13 0 0 1-4.653-4.653C0 24.211 0 21.474 0 16z"/><g filter="url(#c)"><path fill="#151515" d="M2 15.585c0-4.278 0-6.417.797-8.066a8 8 0 0 1 3.722-3.722C8.17 3 10.307 3 14.585 3c1.59 0 2.385 0 3.146.15a8 8 0 0 1 2.167.76c.687.358 1.308.855 2.55 1.848L24 7l2.686 2.686c.955.955 1.432 1.432 1.812 1.962a8 8 0 0 1 1.396 3.37c.106.644.106 1.319.106 2.668 0 3.085 0 4.627-.42 5.87a8 8 0 0 1-5.023 5.024c-1.244.42-2.786.42-5.87.42H15c-4.67 0-7.004 0-8.771-.945a8 8 0 0 1-3.284-3.284C2 23.004 2 20.67 2 16z"/></g><g filter="url(#d)"><rect width="10.667" height="2.844" x="7.111" y="11.444" fill="#000" rx="1.422"/></g><g filter="url(#e)"><path fill="#000" d="M7.111 19.978c0-.786.637-1.422 1.422-1.422h14.045a1.422 1.422 0 0 1 0 2.844H8.533a1.42 1.42 0 0 1-1.422-1.422"/></g><path fill="url(#f)" d="M50.572 26h-6.877V5.629h7.028q3.035 0 5.236 1.244 2.201 1.23 3.39 3.514 1.19 2.27 1.19 5.4 0 3.159-1.19 5.455a8.37 8.37 0 0 1-3.431 3.528Q53.689 26 50.572 26m-3.267-3.09h3.076q3.322 0 4.908-1.86 1.6-1.872 1.6-5.263 0-3.363-1.586-5.209-1.587-1.86-4.813-1.86h-3.185zm21.923 3.418q-2.133 0-3.733-.943a6.7 6.7 0 0 1-2.502-2.653q-.888-1.695-.888-3.937t.888-3.938q.903-1.709 2.502-2.666 1.6-.957 3.733-.957 2.119 0 3.719.957a6.54 6.54 0 0 1 2.501 2.666q.903 1.695.903 3.938 0 2.242-.903 3.937a6.56 6.56 0 0 1-2.501 2.653q-1.6.943-3.72.943m0-2.885q1.654 0 2.639-1.244t.984-3.404-.984-3.418-2.64-1.258q-1.667 0-2.651 1.258-.985 1.245-.985 3.418 0 2.16.985 3.404.984 1.244 2.652 1.244m15.62 2.885q-2.105 0-3.705-.957-1.585-.957-2.475-2.652-.875-1.695-.875-3.924t.875-3.924q.89-1.71 2.475-2.666 1.6-.97 3.705-.97 1.819 0 3.24.71a5.86 5.86 0 0 1 2.284 1.942q.875 1.23 1.025 2.843H88.02q-.19-1.161-.998-1.886-.793-.738-2.133-.739-1.695 0-2.652 1.272t-.957 3.418q0 2.133.957 3.404.957 1.258 2.652 1.258 1.354 0 2.106-.71.752-.726.998-1.929h3.404q-.123 1.587-.998 2.83-.861 1.245-2.297 1.97-1.421.71-3.254.71M93.605 26V5.629h3.61v9.83q.792-.93 1.586-1.846.805-.916 1.599-1.845l5.414-6.14h4.457l-7.834 8.82L110.408 26h-4.211l-6.193-9.12-2.79 3.16V26zm18.287 0V11.563h3.445V26zm1.722-16.584q-.888 0-1.476-.56a1.9 1.9 0 0 1-.588-1.409q0-.833.588-1.394t1.476-.56q.876 0 1.463.56t.588 1.394q0 .835-.588 1.408-.588.561-1.463.561m12.34 2.146v2.776h-2.94v7.52q0 .779.315 1.08.314.286 1.148.287h1.477V26h-2.079q-2.2 0-3.267-.889-1.053-.888-1.053-2.748v-8.025h-2.516v-2.775h2.516V7.624h3.459v3.938z"/><defs><linearGradient id="a" x1="7.5" x2="35.301" y1="2" y2="16.566" gradientUnits="userSpaceOnUse"><stop stop-color="#7f52ff"/><stop offset=".313" stop-color="#3dbaaa"/><stop offset=".66" stop-color="#dfa75e"/><stop offset="1" stop-color="#ff856a"/></linearGradient><linearGradient id="b" x1="0" x2="36.528" y1="32" y2="23.872" gradientUnits="userSpaceOnUse"><stop stop-color="#3a1c71"/><stop offset=".5" stop-color="#d76d77"/><stop offset="1" stop-color="#ffca7b"/></linearGradient><linearGradient id="f" x1="84.5" x2="84.5" y1="6" y2="26" gradientUnits="userSpaceOnUse"><stop/><stop offset="1" stop-color="#555"/></linearGradient><filter id="c" width="28" height="26" x="2" y="3" color-interpolation-filters="sRGB" filterUnits="userSpaceOnUse"><feFlood flood-opacity="0" result="BackgroundImageFix"/><feBlend in="SourceGraphic" in2="BackgroundImageFix" result="shape"/><feColorMatrix in="SourceAlpha" result="hardAlpha" values="0 0 0 0 0 0 0 0 0 0 0 0 0 0 0 0 0 0 127 0"/><feOffset dx="1" dy="-1.5"/><feComposite in2="hardAlpha" k2="-1" k3="1" operator="arithmetic"/><feColorMatrix values="0 0 0 0 1 0 0 0 0 1 0 0 0 0 1 0 0 0 0.1 0"/><feBlend in2="shape" result="effect1_innerShadow_894_7"/></filter><filter id="d" width="17.778" height="9.956" x="3.555" y="7.889" color-interpolation-filters="sRGB" filterUnits="userSpaceOnUse"><feFlood flood-opacity="0" result="BackgroundImageFix"/><feColorMatrix in="SourceAlpha" result="hardAlpha" values="0 0 0 0 0 0 0 0 0 0 0 0 0 0 0 0 0 0 127 0"/><feOffset/><feGaussianBlur stdDeviation="1.778"/><feComposite in2="hardAlpha" operator="out"/><feColorMatrix values="0 0 0 0 1 0 0 0 0 1 0 0 0 0 1 0 0 0 0.6 0"/><feBlend in2="BackgroundImageFix" result="effect1_dropShadow_894_7"/><feBlend in="SourceGraphic" in2="effect1_dropShadow_894_7" result="shape"/></filter><filter id="e" width="24" height="9.956" x="3.555" y="15" color-interpolation-filters="sRGB" filterUnits="userSpaceOnUse"><feFlood flood-opacity="0" result="BackgroundImageFix"/><feColorMatrix in="SourceAlpha" result="hardAlpha" values="0 0 0 0 0 0 0 0 0 0 0 0 0 0 0 0 0 0 127 0"/><feOffset/><feGaussianBlur stdDeviation="1.778"/><feComposite in2="hardAlpha" operator="out"/><feColorMatrix values="0 0 0 0 1 0 0 0 0 1 0 0 0 0 1 0 0 0 0.6 0"/><feBlend in2="BackgroundImageFix" result="effect1_dropShadow_894_7"/><feBlend in="SourceGraphic" in2="effect1_dropShadow_894_7" result="shape"/></filter></defs></svg>